<svg width="931" height="563" viewBox="0 0 931 563" fill="none" xmlns="http://www.w3.org/2000/svg">
<g clip-path="url(#clip0_373_1710)">
<path d="M845.439 355.911C839.279 355.911 833.478 357.43 828.378 360.109C821.046 340.737 802.355 326.968 780.455 326.968C776.218 326.968 772.096 327.49 768.152 328.471C756.534 311.826 737.29 300.915 715.471 300.915C693.652 300.915 674.636 311.696 662.985 328.177C659.417 327.392 655.734 326.968 651.921 326.968C630.249 326.968 611.738 340.46 604.242 359.505C599.435 357.202 594.074 355.911 588.387 355.911C568.785 355.911 552.751 371.282 551.643 390.654H882.184C881.06 371.282 865.042 355.911 845.439 355.911Z" fill="#C3D3E2"/>
<path d="M878.077 379.007H545.825L545.874 378.142C547.031 358.231 563.521 342.632 583.434 342.632C588.811 342.632 593.993 343.743 598.849 345.931C606.947 326.314 625.735 313.672 646.967 313.672C650.536 313.672 654.121 314.048 657.673 314.783C669.911 297.779 689.611 287.636 710.501 287.636C731.391 287.636 751.32 297.877 763.525 315.077C767.435 314.146 771.46 313.688 775.469 313.688C796.652 313.688 815.978 326.837 823.832 346.519C828.981 343.971 834.701 342.648 840.453 342.648C860.365 342.648 876.855 358.247 878.012 378.158L878.061 379.024L878.077 379.007ZM547.569 377.374H876.334C874.818 358.737 859.224 344.265 840.453 344.265C834.57 344.265 828.965 345.654 823.783 348.365L822.968 348.79L822.642 347.924C815.244 328.405 796.294 315.305 775.485 315.305C771.411 315.305 767.338 315.795 763.378 316.775L762.84 316.906L762.514 316.449C750.635 299.445 731.196 289.269 710.501 289.269C689.807 289.269 670.579 299.331 658.683 316.187L658.374 316.628L657.852 316.514C654.251 315.73 650.601 315.322 646.967 315.322C626.126 315.322 607.697 327.882 600.038 347.336L599.712 348.153L598.93 347.777C594.074 345.441 588.86 344.265 583.434 344.265C564.678 344.265 549.084 358.737 547.552 377.374H547.569Z" fill="#1A1A1A"/>
</g>
<path d="M745.763 185.906H804.782L830.282 212.53H893.027V214.546H829.483L803.983 187.923H745.763V185.906Z" fill="#133C67"/>
<path d="M898.769 214.522C899.282 211.224 897.136 208.116 893.977 207.581C890.818 207.045 887.841 209.285 887.328 212.584C886.816 215.882 888.961 218.99 892.12 219.525C895.279 220.061 898.256 217.821 898.769 214.522Z" fill="#133C67"/>
<path d="M863.507 125.729H922.477V127.746H864.338L846.289 145.88H726.413V143.864H845.458L863.507 125.729Z" fill="#133C67"/>
<path d="M926.735 131.015C929.087 128.652 929.087 124.821 926.735 122.458C924.383 120.096 920.57 120.096 918.219 122.458C915.867 124.821 915.867 128.652 918.219 131.015C920.57 133.378 924.383 133.378 926.735 131.015Z" fill="#133C67"/>
<path d="M823.34 67.0349H857.929V69.0517H824.171L804.11 89.2075H757.962V87.1907H803.279L823.34 67.0349Z" fill="#133C67"/>
<path d="M857.929 74.0936C861.255 74.0936 863.951 71.3847 863.951 68.0431C863.951 64.7016 861.255 61.9927 857.929 61.9927C854.603 61.9927 851.907 64.7016 851.907 68.0431C851.907 71.3847 854.603 74.0936 857.929 74.0936Z" fill="#133C67"/>
<path d="M366.531 140.45H413.997L431.376 160.176H488.765V162.193H430.64L413.262 142.467H367.27L350.845 161.114H316.783V159.097H350.106L366.531 140.45Z" fill="#133C67"/>
<path d="M321.968 161.52C322.644 158.268 320.87 155.009 318.005 154.242C315.141 153.474 312.27 155.488 311.594 158.74C310.918 161.993 312.692 165.251 315.557 166.019C318.422 166.787 321.292 164.772 321.968 161.52Z" fill="#133C67"/>
<path d="M382.488 65.6545H424.128L443.037 84.6531H488.765V86.6699H442.206L423.297 67.6714H382.488V65.6545Z" fill="#133C67"/>
<path d="M386.743 70.9431C389.095 68.5803 389.095 64.7493 386.743 62.3865C384.392 60.0236 380.579 60.0236 378.227 62.3865C375.875 64.7493 375.875 68.5803 378.227 70.9431C380.579 73.306 384.392 73.306 386.743 70.9431Z" fill="#133C67"/>
<path d="M623.553 268.357C623.425 268.358 623.297 268.335 623.178 268.287C623.059 268.24 622.951 268.169 622.859 268.08C622.767 267.99 622.693 267.883 622.643 267.765C622.592 267.647 622.565 267.52 622.564 267.392C622.561 267.262 622.583 267.133 622.63 267.012C622.676 266.891 622.746 266.78 622.836 266.686C622.926 266.591 623.033 266.516 623.152 266.463C623.27 266.41 623.398 266.382 623.528 266.379C694.905 264.969 752.975 205.719 752.975 134.315C752.919 99.3007 738.983 65.736 714.221 40.9768C689.458 16.2176 655.889 2.2832 620.87 2.22762C585.85 2.2832 552.281 16.2176 527.518 40.9768C502.756 65.736 488.82 99.3007 488.764 134.315C488.707 166.832 500.67 198.222 522.355 222.455C544.039 246.687 573.914 262.053 606.241 265.599C606.502 265.63 606.741 265.764 606.906 265.97C607.07 266.176 607.147 266.438 607.119 266.7C607.091 266.961 606.96 267.2 606.756 267.364C606.552 267.529 606.291 267.606 606.031 267.578C573.227 263.965 542.914 248.363 520.914 223.766C498.913 199.17 486.777 167.313 486.835 134.315C486.878 98.7805 501.011 64.7126 526.137 39.581C551.263 14.4494 585.33 0.305132 620.87 0.249512C656.416 0.295321 690.493 14.435 715.626 39.5677C740.76 64.7004 754.899 98.7741 754.941 134.315C755.042 169.446 741.265 203.196 716.607 228.222C692.101 253.317 658.687 267.738 623.615 268.357H623.553Z" fill="#1A1A1A"/>
<g clip-path="url(#clip1_373_1710)">
<path d="M577.981 219.144C573.557 217.54 569.528 215.003 566.162 211.706L645.606 95.0978L673.375 122.999L616.356 206.707C616.356 206.707 616.356 206.707 616.356 206.707C613.621 210.72 610.04 214.079 605.867 216.544C601.694 219.009 597.032 220.519 592.212 220.969C587.393 221.418 582.534 220.795 577.981 219.144Z" fill="#C3D3E2"/>
<path d="M577.981 219.144C573.557 217.54 569.528 215.003 566.162 211.706L645.606 95.0978L673.375 122.999L616.356 206.707C616.356 206.707 616.356 206.707 616.356 206.707C613.621 210.72 610.04 214.079 605.867 216.544C601.694 219.009 597.032 220.519 592.212 220.969C587.393 221.418 582.534 220.795 577.981 219.144Z" fill="#C3D3E2"/>
<path d="M577.981 219.144C573.557 217.54 569.528 215.003 566.162 211.706L645.606 95.0978L673.375 122.999L616.356 206.707C616.356 206.707 616.356 206.707 616.356 206.707C613.621 210.72 610.04 214.079 605.867 216.544C601.694 219.009 597.032 220.519 592.212 220.969C587.393 221.418 582.534 220.795 577.981 219.144Z" stroke="#1A1A1A"/>
<mask id="path-15-inside-1_373_1710" fill="white">
<path d="M577.631 80.5671L520.379 164.6C523.852 168.094 528.05 170.775 532.673 172.453C537.295 174.131 542.229 174.765 547.124 174.308C552.018 173.852 556.751 172.317 560.988 169.813C565.224 167.309 568.859 163.897 571.633 159.821L628.885 75.788C625.411 72.2941 621.214 69.6126 616.591 67.9345C611.968 66.2564 607.034 65.6229 602.14 66.0793C597.246 66.5356 592.512 68.0706 588.276 70.5747C584.04 73.0789 580.405 76.4906 577.631 80.5671Z"/>
</mask>
<path d="M577.631 80.5671L520.379 164.6C523.852 168.094 528.05 170.775 532.673 172.453C537.295 174.131 542.229 174.765 547.124 174.308C552.018 173.852 556.751 172.317 560.988 169.813C565.224 167.309 568.859 163.897 571.633 159.821L628.885 75.788C625.411 72.2941 621.214 69.6126 616.591 67.9345C611.968 66.2564 607.034 65.6229 602.14 66.0793C597.246 66.5356 592.512 68.0706 588.276 70.5747C584.04 73.0789 580.405 76.4906 577.631 80.5671Z" fill="#C3D3E2"/>
<path d="M520.379 164.6L519.552 164.037L519.088 164.719L519.67 165.305L520.379 164.6ZM571.633 159.821L570.807 159.258L570.806 159.258L571.633 159.821ZM628.885 75.788L629.711 76.3511L630.176 75.6686L629.594 75.083L628.885 75.788ZM576.804 80.0041L519.552 164.037L521.205 165.163L578.457 81.1302L576.804 80.0041ZM519.67 165.305C523.247 168.903 527.57 171.665 532.331 173.393L533.014 171.513C528.53 169.886 524.458 167.284 521.088 163.895L519.67 165.305ZM532.331 173.393C537.093 175.122 542.175 175.774 547.216 175.304L547.031 173.313C542.284 173.755 537.498 173.141 533.014 171.513L532.331 173.393ZM547.216 175.304C552.258 174.834 557.133 173.253 561.497 170.674L560.479 168.952C556.369 171.381 551.778 172.87 547.031 173.313L547.216 175.304ZM561.497 170.674C565.86 168.095 569.603 164.581 572.46 160.383L570.806 159.258C568.115 163.213 564.588 166.523 560.479 168.952L561.497 170.674ZM572.459 160.384L629.711 76.3511L628.058 75.225L570.807 159.258L572.459 160.384ZM629.594 75.083C626.017 71.4848 621.694 68.723 616.932 66.9945L616.25 68.8745C620.734 70.5022 624.806 73.1034 628.176 76.493L629.594 75.083ZM616.932 66.9945C612.171 65.266 607.089 64.6135 602.047 65.0836L602.233 67.075C606.98 66.6323 611.766 67.2467 616.25 68.8745L616.932 66.9945ZM602.047 65.0836C597.006 65.5537 592.13 67.1347 587.767 69.7139L588.785 71.4356C592.894 69.0064 597.486 67.5176 602.233 67.075L602.047 65.0836ZM587.767 69.7139C583.404 72.293 579.661 75.8067 576.804 80.0045L578.457 81.1298C581.149 77.1746 584.675 73.8648 588.785 71.4356L587.767 69.7139Z" fill="#1A1A1A" mask="url(#path-15-inside-1_373_1710)"/>
<path d="M657.183 161.016L565.515 211.768C573.731 220.016 584.39 225.361 595.889 227.001C607.388 228.64 619.106 226.485 629.281 220.859L720.949 170.106C712.739 161.848 702.08 156.496 690.578 154.857C679.076 153.217 667.356 155.378 657.183 161.016Z" fill="#133C67"/>
<path d="M657.183 161.016L565.515 211.768C573.731 220.016 584.39 225.361 595.889 227.001C607.388 228.64 619.106 226.485 629.281 220.859L720.949 170.106C712.739 161.848 702.08 156.496 690.578 154.857C679.076 153.217 667.356 155.378 657.183 161.016Z" fill="#133C67"/>
<path d="M563.309 66.6978L471.658 117.45C479.871 125.703 490.53 131.052 502.031 132.691C513.531 134.331 525.251 132.172 535.424 126.541L627.092 75.7884C618.877 67.5405 608.218 62.1951 596.719 60.5557C585.22 58.9164 573.502 61.0717 563.326 66.6978" fill="#133C67"/>
<path d="M563.309 66.6978L471.658 117.45C479.871 125.703 490.53 131.052 502.031 132.691C513.531 134.331 525.251 132.172 535.424 126.541L627.092 75.7884C618.877 67.5405 608.218 62.1951 596.719 60.5557C585.22 58.9164 573.502 61.0717 563.326 66.6978" fill="#133C67"/>
<path d="M704.181 134.974L612.53 185.743C620.745 193.993 631.405 199.339 642.905 200.975C654.406 202.612 666.124 200.45 676.296 194.816L767.947 144.064C759.731 135.816 749.072 130.471 737.573 128.831C726.074 127.192 714.356 129.348 704.181 134.974Z" fill="#133C67"/>
<path d="M519.552 163.735L518.586 164.601C535.459 181.57 562.43 184.393 583.335 172.809L674.986 122.057L646.498 93.4341L519.552 163.735Z" fill="#133C67"/>
<path d="M519.552 163.735L518.586 164.601C535.459 181.57 562.43 184.393 583.335 172.809L674.986 122.057L646.498 93.4341L519.552 163.735Z" fill="#133C67"/>
<path d="M610.323 40.6724L518.655 91.4244C526.87 99.6746 537.53 105.02 549.031 106.657C560.531 108.293 572.249 106.132 582.421 100.498L674.072 49.7458C665.86 41.4906 655.2 36.1415 643.698 34.5049C632.196 32.8683 620.477 35.033 610.306 40.6724" fill="#133C67"/>
</g>
<path d="M234.177 392.239V389.754C234.177 389.754 228.362 386.122 208.948 386.122C189.534 386.122 186.373 390.62 186.373 390.62V444.85C186.373 444.85 192.728 447.965 210.14 447.965C227.552 447.965 233.829 444.816 233.829 444.816L234.729 435.956C234.729 435.956 256.246 433.876 256.246 414.255C256.246 394.634 243.986 394.162 234.177 392.239ZM234.504 428.321V400.143C234.504 400.143 248.226 398.322 248.856 410.184C249.576 423.981 234.504 428.321 234.504 428.321Z" fill="#C3D3E2"/>
<path d="M431.94 308.705C431.94 308.705 392.493 310.74 375.351 319.769C358.209 328.798 337.906 334.308 321.136 375.338C304.365 416.368 302.509 423.912 299.697 437.9C296.885 451.888 292.161 478.57 294.545 496.369C296.93 514.169 303.082 534.903 324.836 543.595C330.863 545.926 337.26 547.152 343.722 547.215C353.564 547.08 567.907 547.215 567.907 547.215C567.907 547.215 579.47 543.673 583.407 540.896C592.471 534.387 599.076 525.015 602.157 514.292C606.375 499.113 605.993 481.156 605.262 473.42C604.531 465.684 602.36 448.02 599.222 435.752C596.083 423.485 586.759 393.261 581.607 381.781C576.456 370.3 567.963 351.343 558.65 341.538C549.337 331.733 531.182 320.433 519.698 316.857C508.213 313.282 489.992 308.683 473.322 308.705C456.652 308.728 431.94 308.705 431.94 308.705Z" fill="#1A1A1A"/>
<path d="M557.57 383.894H346.107C337.217 383.894 330.011 391.098 330.011 399.985V531.136C330.011 540.022 337.217 547.226 346.107 547.226H557.57C566.46 547.226 573.666 540.022 573.666 531.136V399.985C573.666 391.098 566.46 383.894 557.57 383.894Z" fill="#C3D3E2"/>
<path d="M146.701 484.698C146.701 484.698 142.831 484.405 142.393 487.183C141.954 489.96 145.07 490.241 151.29 490.556C157.51 490.871 274.119 490.421 274.119 490.421C274.119 490.421 281.993 486.834 282.173 481.74C282.352 476.647 282.409 454.968 282.409 454.968C282.409 454.968 280.485 446.49 272.128 445.456C263.771 444.421 145.396 445.253 145.396 445.253C145.396 445.253 142.505 446.782 142.393 448.626C142.28 450.471 146.701 451.37 146.701 451.37V484.698Z" fill="white"/>
<path d="M277.381 500.181L280.756 499.057L282.308 495.965L281.183 492.141L276.583 489.893L108.851 490.826C108.851 490.826 96.6585 495.234 95.4887 504.42C94.3189 513.607 95.3986 545.607 95.3986 545.607C95.3986 545.607 97.8845 560.045 109.301 561.124C120.718 562.204 278.483 561.012 278.483 561.012C278.483 561.012 282.983 558.943 282.33 555.086C281.678 551.229 276.335 550.937 276.335 550.937L277.381 500.181Z" fill="#C3D3E2"/>
<path d="M429.883 316.711C429.883 316.711 431.84 308.761 432.605 303.465C433.369 298.169 434.168 285.823 434.168 285.823C430.633 283.39 427.707 280.174 425.62 276.426C423.532 272.677 422.339 268.497 422.133 264.212L421.154 263.031C421.154 263.031 405.755 268.946 403.303 253.283C400.851 237.62 418.893 239.79 420.873 241.252V232.785C420.873 232.785 432.121 229.412 439.882 222.665C444.927 217.997 449.157 212.521 452.401 206.462C452.401 206.462 457.879 218.505 466.787 224.071C472.295 227.499 478.1 230.427 484.132 232.819V241.285C484.132 241.285 500.396 235.798 501.892 251.405C501.892 251.405 502.624 262.773 494.221 263.515C485.819 264.257 483.502 263.076 483.502 263.076C483.502 263.076 481.129 277.57 471.028 285.812C471.028 285.812 472.288 306.186 473.829 311.134C473.829 311.134 476.866 316.823 475.167 320.331C473.469 323.839 466.495 332.317 452.379 331.575C438.262 330.833 433.077 324.379 431.896 323.277C430.715 322.175 429.883 316.711 429.883 316.711Z" fill="#C3D3E2"/>
<path d="M473.227 476.269C475.408 467.034 469.686 457.78 460.448 455.601C451.209 453.421 441.953 459.14 439.772 468.375C437.592 477.61 443.313 486.864 452.552 489.044C461.79 491.223 471.047 485.504 473.227 476.269Z" fill="white"/>
<path d="M146.701 484.698V451.325H270.565L274.389 453.417L275.323 456.666V480.56L273.276 483.63L269.868 484.686L146.701 484.698Z" fill="white"/>
<path d="M104.802 507.468L105.893 503.656L109.335 500.721L113.755 500.181H276.593V551.679H109.751L105.915 548.239L104.824 544.978L104.802 507.468Z" fill="white"/>
<path d="M415.473 238.823C415.473 238.823 411.829 219.551 414.191 209.363C416.553 199.176 423.19 186.313 451.793 185.627C451.793 185.627 470.443 186.077 479.216 192.767C487.99 199.457 491.702 208.127 490.768 219.607C489.834 231.087 488.968 239.981 488.968 239.981L484.176 241.252V232.785C484.176 232.785 461.197 226.871 452.446 206.429C452.446 206.429 442.75 228.917 420.951 232.785L420.276 240.937L415.473 238.823Z" fill="#C3D3E2"/>
<path d="M417.431 265.022C417.431 265.022 421.356 286.318 413.01 292.93C404.664 299.541 391.74 307.255 391.549 313.507C391.549 313.507 405.598 311.055 413.426 310.257C421.255 309.458 431.941 308.705 431.941 308.705L434.775 286.217C434.775 286.217 422.661 278.29 421.975 263.11L417.431 265.022Z" fill="#C3D3E2"/>
<path d="M487.596 264.212C487.596 264.212 484.975 275.22 487.146 284.013C489.317 292.806 496.347 296.899 500.993 300.058C505.638 303.218 511.622 306.805 513.512 314.271C513.512 314.271 494.896 310.223 484.109 309.458L473.322 308.705L471.073 285.823C471.073 285.823 481.466 278.705 483.547 263.087L487.596 264.212Z" fill="#C3D3E2"/>
<path d="M479.216 192.767C475.842 190.18 470.938 188.528 466.236 187.471C466.45 187.561 479.43 193.307 479.734 207.564C480.037 221.822 453.492 206.44 453.492 206.44C453.492 206.44 453.661 207.564 453.919 209.498C463.525 227.489 484.166 232.796 484.166 232.796V241.263L488.957 239.992C488.957 239.992 489.823 231.098 490.757 219.618C491.691 208.137 487.99 199.457 479.216 192.767Z" fill="white"/>
<path d="M513.511 314.271C511.622 306.85 505.638 303.207 500.992 300.058C496.347 296.91 489.328 292.806 487.146 284.013C484.964 275.22 487.596 264.212 487.596 264.212L483.547 263.087C482.925 267.926 481.338 272.591 478.878 276.805C478.462 279.661 477.225 291.321 483.569 297.787C486.37 300.643 487.596 305.253 488.068 309.841C498.9 311.1 513.511 314.271 513.511 314.271Z" fill="white"/>
<path d="M432.581 266.629C424.573 266.629 418.06 258.432 418.06 248.358C418.06 238.283 424.573 230.086 432.581 230.086C440.59 230.086 447.114 238.283 447.114 248.358C447.136 250.034 446.951 251.708 446.562 253.339C446.489 253.637 446.301 253.894 446.038 254.053C445.776 254.212 445.461 254.261 445.162 254.188C444.864 254.115 444.607 253.926 444.447 253.664C444.288 253.401 444.24 253.086 444.313 252.788C444.653 251.337 444.812 249.848 444.785 248.358C444.785 239.576 439.33 232.425 432.615 232.425C425.9 232.425 420.445 239.576 420.445 248.358C420.445 257.139 425.9 264.291 432.615 264.291C434.279 264.282 435.916 263.868 437.384 263.084C438.852 262.301 440.107 261.171 441.04 259.793C441.128 259.664 441.242 259.555 441.374 259.472C441.506 259.39 441.655 259.336 441.809 259.314C441.963 259.291 442.121 259.302 442.271 259.343C442.421 259.385 442.561 259.458 442.682 259.557C442.81 259.646 442.918 259.76 443 259.893C443.081 260.026 443.134 260.174 443.155 260.328C443.177 260.483 443.165 260.64 443.123 260.79C443.08 260.939 443.006 261.079 442.907 261.199C441.75 262.868 440.207 264.233 438.41 265.179C436.612 266.124 434.613 266.622 432.581 266.629Z" fill="#1A1A1A"/>
<path d="M472.254 266.629C464.245 266.629 457.732 258.432 457.732 248.358C457.732 238.283 464.245 230.086 472.254 230.086C480.262 230.086 486.786 238.283 486.786 248.358C486.786 258.432 480.262 266.629 472.254 266.629ZM472.254 232.425C465.505 232.425 460.083 239.576 460.083 248.358C460.083 257.139 465.538 264.291 472.254 264.291C478.969 264.291 484.424 257.139 484.424 248.358C484.424 239.576 478.969 232.425 472.254 232.425Z" fill="#1A1A1A"/>
<path d="M458.419 249.516C458.271 249.517 458.124 249.488 457.987 249.432C457.85 249.376 457.725 249.294 457.62 249.19C455.528 247.233 453.481 246.244 451.524 246.457C449.864 246.644 448.335 247.447 447.238 248.706C447.147 248.834 447.03 248.94 446.895 249.02C446.76 249.099 446.609 249.149 446.454 249.167C446.298 249.185 446.14 249.171 445.991 249.124C445.841 249.078 445.703 249.001 445.585 248.898C445.459 248.806 445.354 248.69 445.276 248.556C445.197 248.422 445.148 248.273 445.13 248.119C445.112 247.964 445.126 247.808 445.171 247.66C445.217 247.511 445.292 247.374 445.394 247.256C446.895 245.472 449.034 244.346 451.355 244.119C454.032 243.939 456.653 245.052 459.229 247.492C459.445 247.713 459.566 248.009 459.566 248.318C459.566 248.627 459.445 248.924 459.229 249.145C459.126 249.259 459.001 249.35 458.862 249.414C458.723 249.478 458.572 249.512 458.419 249.516Z" fill="#1A1A1A"/>
<path d="M557.581 548.418H346.118C341.538 548.412 337.149 546.591 333.912 543.353C330.675 540.115 328.855 535.725 328.852 531.147V399.985C328.858 395.41 330.679 391.025 333.916 387.791C337.153 384.557 341.541 382.739 346.118 382.736H557.581C562.158 382.739 566.546 384.557 569.783 387.791C573.02 391.025 574.841 395.41 574.847 399.985V531.147C574.844 535.725 573.025 540.115 569.788 543.353C566.551 546.591 562.161 548.412 557.581 548.418ZM346.118 385.075C342.163 385.078 338.371 386.65 335.575 389.445C332.778 392.241 331.206 396.032 331.203 399.985V531.147C331.203 535.103 332.774 538.896 335.571 541.694C338.367 544.492 342.161 546.065 346.118 546.068H557.581C561.537 546.062 565.329 544.488 568.125 541.691C570.921 538.894 572.493 535.102 572.496 531.147V399.985C572.49 396.032 570.917 392.244 568.121 389.449C565.326 386.654 561.535 385.081 557.581 385.075H346.118Z" fill="#1A1A1A"/>
<path d="M452.142 485.002C448.509 485.002 444.958 483.925 441.937 481.907C438.917 479.89 436.562 477.022 435.172 473.667C433.782 470.312 433.418 466.62 434.127 463.058C434.836 459.496 436.585 456.224 439.154 453.656C441.723 451.088 444.995 449.34 448.559 448.631C452.122 447.923 455.815 448.286 459.171 449.676C462.527 451.066 465.396 453.419 467.414 456.439C469.433 459.458 470.51 463.009 470.51 466.64C470.504 471.508 468.567 476.175 465.124 479.617C461.68 483.059 457.012 484.996 452.142 485.002ZM452.142 450.629C448.974 450.629 445.877 451.568 443.243 453.327C440.609 455.086 438.556 457.587 437.344 460.513C436.132 463.438 435.814 466.658 436.433 469.764C437.051 472.87 438.576 475.723 440.816 477.962C443.056 480.201 445.91 481.726 449.017 482.344C452.124 482.962 455.345 482.645 458.272 481.433C461.198 480.221 463.7 478.169 465.46 475.536C467.22 472.903 468.159 469.807 468.159 466.64C468.153 462.395 466.464 458.326 463.461 455.325C460.459 452.323 456.388 450.634 452.142 450.629Z" fill="#1A1A1A"/>
<path d="M558.267 548.351C557.957 548.351 557.66 548.228 557.44 548.009C557.221 547.789 557.098 547.492 557.098 547.182C557.098 546.871 557.221 546.574 557.44 546.355C557.66 546.135 557.957 546.012 558.267 546.012C578.863 546.012 592.777 536.635 599.638 518.138C618.985 465.966 577.367 358.989 555.995 340.616C528.46 317.003 506.504 311.696 473.243 309.875C473.086 309.876 472.93 309.843 472.785 309.78C472.641 309.716 472.511 309.623 472.405 309.507C472.299 309.39 472.219 309.253 472.17 309.103C472.12 308.953 472.103 308.795 472.118 308.638C472.147 308.33 472.289 308.043 472.519 307.835C472.748 307.627 473.046 307.512 473.356 307.513C507.168 309.38 529.461 314.721 557.514 338.828C579.2 357.471 621.448 466.011 601.809 518.948C594.599 538.468 579.943 548.351 558.267 548.351Z" fill="#1A1A1A"/>
<path d="M346.804 548.418C322.159 548.418 305.692 537.714 297.863 516.609C278.202 463.581 320.551 357.977 342.856 338.839C370.155 315.373 397.172 309.47 431.929 307.524C432.239 307.523 432.537 307.638 432.767 307.846C432.996 308.054 433.138 308.341 433.166 308.649C433.182 308.806 433.165 308.964 433.115 309.114C433.066 309.264 432.985 309.401 432.879 309.518C432.773 309.634 432.644 309.727 432.5 309.791C432.355 309.854 432.199 309.887 432.042 309.886C397.769 311.786 371.167 317.599 344.363 340.627C322.429 359.483 280.699 463.548 300.09 515.799C307.537 535.892 323.273 546.079 346.826 546.079C347.138 546.079 347.437 546.203 347.657 546.424C347.878 546.644 348.002 546.943 348.002 547.255C348.002 547.566 347.878 547.865 347.657 548.085C347.437 548.306 347.138 548.43 346.826 548.43L346.804 548.418Z" fill="#1A1A1A"/>
<path d="M415.541 265.573H414.686C412.042 265.404 409.507 264.456 407.402 262.848C405.296 261.24 403.715 259.044 402.857 256.538C401.999 254.032 401.903 251.328 402.581 248.768C403.259 246.207 404.68 243.905 406.666 242.152C408.526 240.517 410.801 239.429 413.241 239.006C415.68 238.583 418.189 238.843 420.49 239.757C420.634 239.813 420.764 239.898 420.875 240.005C420.985 240.113 421.074 240.241 421.135 240.382C421.196 240.524 421.229 240.676 421.231 240.83C421.233 240.984 421.205 241.137 421.148 241.28C421.091 241.423 421.007 241.554 420.899 241.665C420.792 241.775 420.664 241.864 420.522 241.925C420.381 241.986 420.229 242.018 420.075 242.02C419.921 242.023 419.767 241.995 419.624 241.938C418.138 241.344 416.54 241.08 414.942 241.164C413.344 241.248 411.783 241.678 410.368 242.424C408.952 243.17 407.715 244.214 406.742 245.484C405.769 246.755 405.084 248.221 404.734 249.782C404.383 251.343 404.376 252.962 404.712 254.526C405.049 256.09 405.721 257.562 406.682 258.841C407.644 260.12 408.871 261.176 410.28 261.934C411.689 262.693 413.246 263.136 414.844 263.234C416.841 263.34 418.832 262.917 420.614 262.009C420.892 261.86 421.217 261.827 421.518 261.917C421.82 262.008 422.073 262.215 422.222 262.492C422.372 262.769 422.404 263.095 422.314 263.396C422.223 263.698 422.016 263.951 421.739 264.1C419.822 265.084 417.696 265.59 415.541 265.573Z" fill="#1A1A1A"/>
<path d="M412.83 259.557C412.65 259.56 412.473 259.519 412.313 259.439C412.152 259.359 412.013 259.241 411.907 259.096C411.807 258.977 411.733 258.838 411.69 258.689C411.646 258.54 411.634 258.383 411.654 258.228C411.674 258.074 411.726 257.926 411.806 257.792C411.887 257.659 411.994 257.544 412.121 257.455L418.803 252.305C419.049 252.115 419.36 252.032 419.668 252.072C419.976 252.112 420.255 252.272 420.445 252.518C420.634 252.765 420.718 253.076 420.678 253.383C420.638 253.691 420.477 253.971 420.231 254.16L413.55 259.31C413.346 259.474 413.091 259.561 412.83 259.557Z" fill="#1A1A1A"/>
<path d="M418.915 251.574C418.664 251.579 418.419 251.5 418.218 251.349L411.278 246.211C411.029 246.024 410.864 245.747 410.82 245.439C410.775 245.131 410.855 244.818 411.042 244.569C411.228 244.32 411.506 244.155 411.814 244.111C412.122 244.067 412.435 244.147 412.684 244.333L419.624 249.46C419.869 249.58 420.062 249.785 420.167 250.036C420.273 250.288 420.283 250.569 420.196 250.828C420.11 251.086 419.932 251.304 419.696 251.442C419.461 251.579 419.183 251.626 418.915 251.574Z" fill="#1A1A1A"/>
<path d="M489.733 265.572C487.588 265.577 485.474 265.064 483.569 264.077C483.432 264.003 483.31 263.903 483.212 263.782C483.113 263.662 483.039 263.523 482.994 263.373C482.949 263.224 482.934 263.067 482.95 262.912C482.966 262.757 483.011 262.606 483.085 262.469C483.159 262.332 483.259 262.21 483.38 262.112C483.501 262.013 483.64 261.939 483.789 261.894C483.939 261.85 484.096 261.834 484.251 261.85C484.406 261.866 484.557 261.912 484.694 261.986C486.482 262.888 488.474 263.311 490.475 263.211C491.937 263.138 493.369 262.775 494.689 262.143C496.01 261.512 497.192 260.625 498.166 259.534C499.141 258.443 499.889 257.169 500.368 255.787C500.846 254.404 501.046 252.941 500.954 251.481C500.863 250.021 500.482 248.593 499.835 247.281C499.187 245.969 498.285 244.799 497.182 243.838C496.078 242.877 494.795 242.145 493.406 241.683C492.018 241.222 490.551 241.041 489.092 241.15C487.841 241.229 486.613 241.518 485.459 242.005C485.172 242.127 484.849 242.131 484.56 242.015C484.271 241.899 484.04 241.673 483.918 241.386C483.795 241.1 483.792 240.777 483.908 240.488C484.024 240.199 484.25 239.968 484.536 239.846C485.937 239.254 487.428 238.904 488.946 238.811C492.493 238.589 495.982 239.785 498.648 242.135C501.313 244.485 502.935 247.797 503.157 251.343C503.38 254.889 502.184 258.378 499.833 261.042C497.482 263.706 494.169 265.328 490.622 265.55L489.733 265.572Z" fill="#1A1A1A"/>
<path d="M492.421 259.557C492.164 259.558 491.914 259.471 491.713 259.31L484.885 254.036C484.635 253.851 484.468 253.574 484.421 253.266C484.375 252.959 484.453 252.645 484.638 252.394C484.823 252.144 485.099 251.977 485.407 251.931C485.715 251.884 486.029 251.962 486.28 252.147L493.096 257.409C493.224 257.499 493.331 257.614 493.411 257.747C493.491 257.88 493.544 258.029 493.564 258.183C493.584 258.338 493.571 258.494 493.528 258.644C493.484 258.793 493.41 258.931 493.31 259.051C493.212 259.199 493.081 259.323 492.927 259.411C492.772 259.499 492.599 259.549 492.421 259.557Z" fill="#1A1A1A"/>
<path d="M485.864 251.933C485.597 251.981 485.323 251.93 485.091 251.792C484.858 251.653 484.684 251.435 484.599 251.179C484.514 250.922 484.525 250.643 484.629 250.393C484.733 250.144 484.924 249.94 485.166 249.819L492.59 244.332C492.714 244.241 492.854 244.174 493.003 244.137C493.152 244.1 493.307 244.092 493.459 244.114C493.611 244.137 493.757 244.189 493.888 244.268C494.02 244.347 494.135 244.451 494.227 244.574C494.318 244.697 494.385 244.838 494.422 244.987C494.46 245.135 494.467 245.29 494.445 245.442C494.422 245.594 494.37 245.74 494.291 245.872C494.212 246.004 494.108 246.119 493.985 246.21L486.561 251.697C486.362 251.852 486.116 251.935 485.864 251.933Z" fill="#1A1A1A"/>
<path d="M452.614 291.872C446.732 291.872 438.318 290.748 431.592 285.407C426.417 281.303 422.998 274.691 421.12 265.224C420.747 262.99 420.499 260.738 420.377 258.477C420.358 258.319 420.373 258.158 420.421 258.006C420.469 257.853 420.548 257.713 420.655 257.594C420.761 257.474 420.892 257.379 421.038 257.314C421.184 257.25 421.342 257.217 421.502 257.218C421.66 257.201 421.82 257.217 421.971 257.265C422.122 257.314 422.261 257.394 422.379 257.5C422.497 257.606 422.591 257.736 422.655 257.882C422.719 258.027 422.752 258.184 422.751 258.342C422.87 260.513 423.111 262.675 423.47 264.819C425.225 273.713 428.375 279.864 433.099 283.619C439.285 288.533 447.159 289.567 452.659 289.567C452.971 289.567 453.27 289.691 453.49 289.912C453.711 290.132 453.835 290.431 453.835 290.742C453.835 291.054 453.711 291.353 453.49 291.573C453.27 291.794 452.971 291.917 452.659 291.917L452.614 291.872Z" fill="#1A1A1A"/>
<path d="M421.097 241.06C420.799 241.06 420.513 240.942 420.302 240.731C420.091 240.52 419.972 240.234 419.972 239.936C419.972 239.778 419.702 236.102 419.759 232.729C419.759 232.415 419.883 232.115 420.104 231.894C420.326 231.672 420.626 231.548 420.94 231.548C421.253 231.548 421.553 231.672 421.775 231.894C421.996 232.115 422.121 232.415 422.121 232.729C422.053 235.989 422.312 239.689 422.312 239.722C422.331 239.881 422.316 240.042 422.268 240.194C422.221 240.347 422.141 240.487 422.034 240.606C421.928 240.725 421.797 240.82 421.651 240.885C421.505 240.95 421.347 240.983 421.187 240.982L421.097 241.06Z" fill="#1A1A1A"/>
<path d="M420.895 233.955C420.59 233.996 420.28 233.915 420.034 233.728C419.788 233.542 419.627 233.265 419.585 232.959C419.543 232.654 419.625 232.344 419.811 232.098C419.998 231.853 420.275 231.691 420.58 231.649C442.807 225.533 451.265 206.159 451.344 205.968C451.399 205.822 451.483 205.689 451.592 205.577C451.702 205.465 451.833 205.377 451.978 205.319C452.123 205.261 452.278 205.234 452.434 205.239C452.591 205.244 452.744 205.282 452.885 205.349C453.03 205.404 453.162 205.489 453.272 205.597C453.383 205.705 453.47 205.835 453.528 205.979C453.586 206.123 453.614 206.277 453.61 206.431C453.606 206.586 453.569 206.738 453.503 206.879C450.359 213.426 445.851 219.226 440.281 223.889C434.712 228.553 428.209 231.973 421.21 233.921L420.895 233.955Z" fill="#1A1A1A"/>
<path d="M452.423 291.873C452.111 291.873 451.812 291.749 451.592 291.529C451.371 291.308 451.248 291.009 451.248 290.698C451.248 290.386 451.371 290.087 451.592 289.867C451.812 289.647 452.111 289.523 452.423 289.523C457.934 289.523 465.797 288.488 471.995 283.574C476.708 279.819 479.868 273.668 481.623 264.774C482.032 262.322 482.291 259.848 482.399 257.364C482.398 257.206 482.431 257.049 482.495 256.903C482.559 256.758 482.653 256.628 482.771 256.522C482.889 256.416 483.028 256.336 483.179 256.287C483.33 256.239 483.49 256.222 483.648 256.24C483.806 256.239 483.963 256.272 484.109 256.336C484.254 256.4 484.384 256.494 484.49 256.612C484.596 256.73 484.676 256.869 484.725 257.02C484.774 257.171 484.79 257.33 484.772 257.488C484.66 260.073 484.389 262.649 483.963 265.202C482.084 274.669 478.665 281.281 473.48 285.385C466.731 290.748 458.306 291.873 452.423 291.873Z" fill="#1A1A1A"/>
<path d="M484.154 241.128C483.851 241.125 483.56 241.008 483.341 240.799C483.121 240.59 482.99 240.306 482.973 240.003C482.973 237.069 482.973 234.539 482.973 232.863C482.973 232.552 483.096 232.253 483.317 232.032C483.537 231.812 483.836 231.688 484.148 231.688C484.46 231.688 484.759 231.812 484.979 232.032C485.2 232.253 485.323 232.552 485.323 232.863C485.323 234.561 485.323 237.114 485.323 240.071C485.306 240.365 485.174 240.641 484.955 240.838C484.736 241.036 484.448 241.14 484.154 241.128Z" fill="#1A1A1A"/>
<path d="M484.154 233.954C477.082 232.017 470.501 228.604 464.846 223.938C459.19 219.273 454.588 213.463 451.343 206.89C451.223 206.603 451.22 206.281 451.336 205.992C451.452 205.704 451.677 205.473 451.962 205.349C452.102 205.281 452.255 205.243 452.41 205.237C452.566 205.231 452.721 205.257 452.866 205.315C453.01 205.372 453.142 205.458 453.252 205.569C453.361 205.679 453.447 205.811 453.503 205.956C453.593 206.148 462.231 225.532 484.469 231.649C484.621 231.685 484.764 231.752 484.889 231.846C485.014 231.94 485.118 232.059 485.194 232.196C485.27 232.332 485.317 232.483 485.332 232.639C485.346 232.794 485.328 232.952 485.279 233.1C485.217 233.349 485.072 233.57 484.867 233.726C484.662 233.881 484.411 233.962 484.154 233.954Z" fill="#1A1A1A"/>
<path d="M452.884 332.756C443.425 332.756 434.707 328.832 430.681 322.76C428.622 319.657 428.15 316.396 429.353 313.574C432.345 306.524 432.997 285.992 432.997 285.789C433.02 285.483 433.158 285.197 433.384 284.988C433.609 284.78 433.905 284.664 434.212 284.665C434.368 284.665 434.522 284.696 434.665 284.758C434.807 284.82 434.936 284.911 435.041 285.025C435.147 285.14 435.228 285.275 435.279 285.422C435.33 285.569 435.35 285.724 435.337 285.879C435.337 286.734 434.674 307.063 431.513 314.507C430.636 316.587 431.029 319.005 432.638 321.489C435.585 325.987 442.986 330.485 452.884 330.485C462.355 330.485 469.61 327.719 472.804 322.895C473.647 321.694 474.175 320.301 474.338 318.843C474.501 317.385 474.295 315.909 473.738 314.552C470.566 307.108 469.925 286.779 469.902 285.925C469.89 285.769 469.91 285.614 469.961 285.467C470.012 285.32 470.093 285.185 470.198 285.071C470.304 284.956 470.432 284.865 470.575 284.803C470.718 284.741 470.872 284.71 471.027 284.71C471.335 284.704 471.633 284.818 471.858 285.028C472.082 285.238 472.216 285.527 472.231 285.834C472.231 286.037 472.883 306.569 475.886 313.619C476.599 315.332 476.869 317.197 476.672 319.041C476.476 320.886 475.819 322.652 474.762 324.177C472.625 327.348 466.944 332.756 452.884 332.756Z" fill="#1A1A1A"/>
<path d="M488.732 239.992C488.567 239.983 488.407 239.939 488.26 239.865C488.113 239.791 487.982 239.688 487.877 239.561C487.772 239.435 487.693 239.288 487.647 239.13C487.6 238.972 487.587 238.806 487.607 238.643C490.307 221.372 490.318 212.579 487.607 205.012C482.917 191.688 466.348 186.864 452.401 186.796C452.09 186.796 451.793 186.673 451.573 186.454C451.354 186.234 451.231 185.937 451.231 185.627C451.231 185.317 451.354 185.019 451.573 184.8C451.793 184.581 452.09 184.458 452.401 184.458C467.147 184.525 484.716 189.753 489.823 204.236C492.624 212.208 492.635 221.304 489.823 239.003C489.79 239.271 489.662 239.519 489.462 239.701C489.262 239.883 489.002 239.986 488.732 239.992Z" fill="#1A1A1A"/>
<path d="M415.485 239.992C415.208 239.994 414.941 239.894 414.733 239.712C414.526 239.529 414.393 239.277 414.36 239.003C411.604 221.305 411.615 212.208 414.416 204.236C419.511 189.753 437.081 184.525 451.827 184.458C452.137 184.458 452.435 184.581 452.654 184.8C452.874 185.019 452.997 185.317 452.997 185.627C452.997 185.937 452.874 186.234 452.654 186.454C452.435 186.673 452.137 186.796 451.827 186.796C437.868 186.864 421.3 191.688 416.609 205.012C413.955 212.579 413.955 221.372 416.666 238.643C416.708 238.951 416.628 239.263 416.443 239.513C416.258 239.763 415.983 239.931 415.676 239.981L415.485 239.992Z" fill="#1A1A1A"/>
<path d="M435.27 232.425C435.122 232.452 434.971 232.45 434.824 232.419C434.677 232.388 434.537 232.328 434.414 232.243C434.29 232.158 434.184 232.049 434.102 231.923C434.02 231.797 433.964 231.656 433.937 231.509C433.91 231.361 433.912 231.21 433.943 231.063C433.974 230.916 434.034 230.777 434.119 230.653C434.205 230.529 434.313 230.423 434.439 230.342C434.565 230.26 434.706 230.204 434.854 230.176C437.661 229.074 440.725 228.801 443.683 229.389C443.838 229.417 443.985 229.476 444.115 229.563C444.245 229.65 444.355 229.763 444.439 229.896C444.522 230.028 444.577 230.176 444.6 230.331C444.623 230.486 444.614 230.644 444.572 230.795C444.495 231.092 444.308 231.348 444.049 231.513C443.79 231.678 443.479 231.738 443.177 231.683C440.67 231.2 438.078 231.434 435.697 232.358C435.561 232.408 435.415 232.431 435.27 232.425Z" fill="#1A1A1A"/>
<path d="M471.658 232.425C471.494 232.43 471.332 232.395 471.185 232.324C468.776 231.306 466.106 231.078 463.559 231.672C463.257 231.727 462.946 231.666 462.687 231.502C462.428 231.337 462.242 231.08 462.164 230.784C462.123 230.633 462.113 230.475 462.136 230.32C462.159 230.165 462.214 230.017 462.298 229.885C462.382 229.752 462.492 229.639 462.622 229.552C462.752 229.464 462.899 229.405 463.053 229.378C466.088 228.674 469.268 228.958 472.13 230.188C472.275 230.244 472.407 230.329 472.518 230.439C472.628 230.548 472.715 230.68 472.772 230.824C472.829 230.969 472.856 231.124 472.85 231.28C472.844 231.435 472.805 231.588 472.737 231.728C472.643 231.935 472.491 232.111 472.3 232.235C472.108 232.358 471.885 232.424 471.658 232.425Z" fill="#1A1A1A"/>
<path d="M454.257 275.569C452.524 275.56 450.8 275.306 449.139 274.815C448.987 274.774 448.846 274.701 448.725 274.602C448.604 274.503 448.504 274.38 448.433 274.24C448.362 274.1 448.321 273.947 448.313 273.791C448.305 273.634 448.329 273.478 448.385 273.331C448.49 273.04 448.702 272.8 448.978 272.66C449.254 272.52 449.573 272.491 449.87 272.578C449.87 272.578 455.617 274.388 459.273 271.892C461.208 270.576 462.288 268.237 462.49 264.943C462.51 264.633 462.651 264.343 462.885 264.137C463.118 263.932 463.423 263.827 463.733 263.847C464.043 263.866 464.333 264.008 464.539 264.241C464.744 264.474 464.849 264.779 464.83 265.089C464.582 269.16 463.154 272.094 460.589 273.837C458.7 275.037 456.493 275.64 454.257 275.569Z" fill="#1A1A1A"/>
<path d="M444.358 264.257C444.071 264.262 443.794 264.158 443.582 263.965C443.166 263.594 439.544 260.254 439.443 256.791C439.419 256.167 439.526 255.544 439.756 254.964C439.987 254.383 440.336 253.856 440.781 253.418C441.252 252.906 441.823 252.497 442.461 252.219C443.098 251.94 443.786 251.797 444.482 251.799C445.914 251.863 447.298 252.33 448.475 253.148C449.195 246.694 449.69 237.631 448.385 235.652C448.3 235.523 448.241 235.378 448.212 235.226C448.183 235.075 448.184 234.919 448.216 234.767C448.247 234.616 448.308 234.472 448.395 234.344C448.482 234.216 448.593 234.107 448.722 234.022C448.852 233.937 448.996 233.878 449.148 233.849C449.3 233.82 449.456 233.821 449.608 233.853C449.759 233.884 449.903 233.945 450.031 234.032C450.159 234.119 450.268 234.23 450.353 234.359C452.704 237.935 450.927 252.62 450.544 255.521C450.521 255.739 450.434 255.947 450.294 256.116C450.154 256.286 449.967 256.412 449.757 256.476C449.551 256.552 449.327 256.566 449.113 256.516C448.899 256.466 448.705 256.354 448.553 256.195C447.466 255.074 446.031 254.352 444.482 254.149C444.098 254.15 443.718 254.232 443.367 254.389C443.017 254.546 442.703 254.774 442.446 255.06C442.221 255.275 442.045 255.536 441.931 255.825C441.816 256.114 441.765 256.424 441.782 256.735C441.85 258.826 444.234 261.412 445.156 262.222C445.277 262.321 445.375 262.444 445.445 262.583C445.515 262.722 445.556 262.873 445.565 263.029C445.573 263.184 445.549 263.339 445.494 263.485C445.44 263.631 445.355 263.763 445.247 263.875C445.136 264.001 444.999 264.1 444.845 264.166C444.692 264.232 444.525 264.264 444.358 264.257Z" fill="#1A1A1A"/>
<path d="M234.2 429.569C234.049 429.586 233.896 429.574 233.749 429.531C233.603 429.489 233.466 429.418 233.347 429.323C233.228 429.228 233.129 429.111 233.055 428.977C232.982 428.844 232.935 428.698 232.918 428.546C232.901 428.395 232.914 428.242 232.956 428.095C232.998 427.949 233.069 427.812 233.164 427.693C233.259 427.574 233.377 427.475 233.51 427.402C233.643 427.328 233.79 427.281 233.941 427.264C234.47 427.141 246.899 424.195 247.653 411.849C247.855 408.577 247.023 406.024 245.178 404.27C241.388 400.638 234.448 401.324 234.403 401.324C234.094 401.357 233.785 401.266 233.543 401.071C233.302 400.876 233.148 400.593 233.115 400.284C233.082 399.976 233.173 399.666 233.368 399.425C233.563 399.184 233.847 399.03 234.155 398.997C234.493 398.997 242.22 398.198 246.798 402.561C249.171 404.81 250.24 407.992 249.992 411.995C249.126 426.117 234.594 429.513 234.447 429.547C234.366 429.566 234.283 429.573 234.2 429.569Z" fill="#1A1A1A"/>
<path d="M234.729 437.148C234.418 437.164 234.114 437.057 233.883 436.849C233.652 436.642 233.513 436.35 233.497 436.04C233.481 435.73 233.588 435.426 233.796 435.195C234.004 434.964 234.295 434.825 234.605 434.809C235.505 434.719 256.449 432.38 255.009 412.164C254.559 405.878 252.433 401.122 248.699 398.018C242.794 393.127 234.729 394.004 234.639 394.004C234.332 394.036 234.025 393.947 233.784 393.756C233.542 393.565 233.385 393.287 233.345 392.981C233.32 392.828 233.326 392.672 233.364 392.521C233.402 392.371 233.471 392.23 233.566 392.108C233.661 391.985 233.781 391.884 233.917 391.809C234.053 391.735 234.203 391.69 234.358 391.677C234.751 391.677 243.48 390.665 250.173 396.174C254.436 399.694 256.854 405.012 257.349 411.984C258.957 434.472 235.089 437.103 234.853 437.125L234.729 437.148Z" fill="#1A1A1A"/>
<path d="M210.14 449.146C205.979 449.146 185.204 448.91 185.204 444.198C185.204 443.9 185.322 443.614 185.533 443.403C185.744 443.193 186.03 443.074 186.328 443.074C186.6 443.083 186.86 443.185 187.065 443.363C187.27 443.542 187.407 443.785 187.453 444.052C188.578 445.177 197.07 446.841 210.05 446.841C223.391 446.841 232.074 445.154 232.985 443.985C232.983 443.84 233.011 443.697 233.068 443.563C233.125 443.43 233.209 443.311 233.315 443.212C233.421 443.114 233.547 443.038 233.684 442.991C233.821 442.944 233.966 442.926 234.11 442.939C234.428 442.973 234.722 443.127 234.93 443.369C235.139 443.611 235.248 443.924 235.235 444.243C235.347 448.91 214.347 449.146 210.14 449.146Z" fill="#1A1A1A"/>
<path d="M186.373 445.368C186.075 445.368 185.789 445.249 185.578 445.038C185.367 444.827 185.249 444.541 185.249 444.243V390.665C185.249 390.353 185.372 390.055 185.593 389.834C185.813 389.614 186.112 389.49 186.424 389.49C186.736 389.49 187.035 389.614 187.255 389.834C187.476 390.055 187.6 390.353 187.6 390.665V444.243C187.6 444.4 187.568 444.555 187.505 444.698C187.443 444.842 187.351 444.971 187.235 445.076C187.12 445.182 186.983 445.263 186.835 445.313C186.687 445.363 186.529 445.382 186.373 445.368Z" fill="#1A1A1A"/>
<path d="M234.2 445.367C233.902 445.367 233.616 445.249 233.405 445.038C233.194 444.827 233.075 444.541 233.075 444.243V390.271C233.075 389.96 233.199 389.661 233.42 389.44C233.64 389.22 233.939 389.096 234.251 389.096C234.563 389.096 234.861 389.22 235.082 389.44C235.302 389.661 235.426 389.96 235.426 390.271V444.243C235.427 444.399 235.395 444.554 235.332 444.698C235.269 444.841 235.177 444.97 235.062 445.076C234.946 445.182 234.81 445.262 234.662 445.313C234.513 445.363 234.356 445.381 234.2 445.367Z" fill="#1A1A1A"/>
<path d="M210.287 396.309C209.263 396.309 185.204 396.242 185.204 390.62C185.204 384.998 209.263 384.998 210.287 384.998C211.31 384.998 235.37 384.998 235.37 390.62C235.37 396.242 211.321 396.309 210.287 396.309ZM187.588 390.62C188.555 391.868 196.586 393.993 210.287 393.993C224.302 393.993 232.434 391.744 233.041 390.564C232.434 389.518 224.302 387.314 210.287 387.314C196.62 387.28 188.555 389.372 187.588 390.62Z" fill="#1A1A1A"/>
<path d="M909.141 548.553H277.836C277.322 548.553 276.828 548.43 276.464 548.211C276.101 547.992 275.896 547.694 275.896 547.384C275.896 547.074 276.101 546.776 276.464 546.557C276.828 546.338 277.322 546.215 277.836 546.215H909.179C909.693 546.215 910.187 546.338 910.551 546.557C910.915 546.776 911.119 547.074 911.119 547.384C911.119 547.694 910.915 547.992 910.551 548.211C910.187 548.43 909.693 548.553 909.179 548.553H909.141Z" fill="#1A1A1A"/>
<path d="M94.9598 548.553H23.3544C23.0442 548.553 22.7467 548.43 22.5273 548.211C22.3079 547.992 22.1846 547.694 22.1846 547.384C22.1846 547.074 22.3079 546.776 22.5273 546.557C22.7467 546.338 23.0442 546.215 23.3544 546.215H94.9598C95.27 546.215 95.5675 546.338 95.7869 546.557C96.0063 546.776 96.1294 547.074 96.1294 547.384C96.1294 547.694 96.0063 547.992 95.7869 548.211C95.5675 548.43 95.27 548.553 94.9598 548.553Z" fill="#1A1A1A"/>
<path d="M235.651 242.905C236.664 242.907 237.655 242.609 238.498 242.047C239.341 241.486 239.999 240.687 240.388 239.752C240.777 238.816 240.879 237.787 240.682 236.793C240.485 235.8 239.997 234.887 239.281 234.171C238.564 233.455 237.651 232.967 236.657 232.77C235.664 232.573 234.634 232.676 233.698 233.064C232.763 233.453 231.963 234.11 231.402 234.953C230.84 235.796 230.542 236.787 230.544 237.8C230.547 239.153 231.086 240.45 232.043 241.406C233 242.363 234.297 242.902 235.651 242.905Z" fill="#1A1A1A"/>
<path d="M275.379 243.175C276.442 243.175 277.482 242.859 278.366 242.269C279.25 241.678 279.939 240.839 280.346 239.857C280.753 238.875 280.859 237.794 280.652 236.751C280.444 235.709 279.932 234.751 279.181 233.999C278.429 233.248 277.471 232.736 276.428 232.529C275.385 232.321 274.304 232.428 273.321 232.834C272.339 233.241 271.499 233.93 270.908 234.814C270.317 235.698 270.002 236.737 270.002 237.8C270.002 239.225 270.569 240.593 271.577 241.6C272.585 242.608 273.953 243.175 275.379 243.175Z" fill="#1A1A1A"/>
<path d="M315.13 242.77C316.116 242.772 317.081 242.482 317.902 241.935C318.723 241.389 319.364 240.611 319.742 239.7C320.121 238.789 320.221 237.787 320.029 236.82C319.837 235.853 319.362 234.964 318.665 234.267C317.967 233.569 317.078 233.095 316.11 232.903C315.143 232.711 314.14 232.81 313.229 233.189C312.318 233.567 311.54 234.208 310.993 235.028C310.447 235.849 310.156 236.814 310.158 237.8C310.158 239.118 310.682 240.382 311.614 241.314C312.547 242.246 313.811 242.77 315.13 242.77Z" fill="#1A1A1A"/>
<path d="M235.651 282.911C236.714 282.911 237.754 282.596 238.638 282.005C239.522 281.415 240.211 280.575 240.618 279.593C241.025 278.611 241.132 277.53 240.924 276.488C240.717 275.445 240.205 274.488 239.453 273.736C238.701 272.984 237.743 272.472 236.7 272.265C235.657 272.057 234.576 272.164 233.593 272.571C232.611 272.978 231.771 273.667 231.18 274.55C230.59 275.434 230.274 276.473 230.274 277.536C230.274 278.242 230.413 278.941 230.684 279.593C230.954 280.245 231.35 280.838 231.849 281.337C232.348 281.836 232.941 282.232 233.593 282.502C234.246 282.772 234.945 282.911 235.651 282.911Z" fill="#1A1A1A"/>
<path d="M275.378 283.136C278.491 283.136 281.014 280.614 281.014 277.503C281.014 274.392 278.491 271.87 275.378 271.87C272.266 271.87 269.743 274.392 269.743 277.503C269.743 280.614 272.266 283.136 275.378 283.136Z" fill="#1A1A1A"/>
<path d="M315.129 282.742C316.166 282.742 317.179 282.435 318.041 281.859C318.903 281.284 319.575 280.465 319.972 279.508C320.368 278.55 320.472 277.497 320.27 276.48C320.068 275.464 319.569 274.53 318.836 273.797C318.103 273.065 317.169 272.566 316.152 272.364C315.135 272.161 314.081 272.265 313.123 272.662C312.166 273.058 311.347 273.73 310.771 274.592C310.195 275.453 309.888 276.466 309.888 277.503C309.886 278.191 310.021 278.873 310.284 279.51C310.547 280.146 310.932 280.724 311.419 281.211C311.907 281.698 312.485 282.084 313.122 282.347C313.758 282.609 314.44 282.744 315.129 282.742Z" fill="#1A1A1A"/>
<path d="M235.651 322.186C236.638 322.189 237.602 321.898 238.424 321.352C239.245 320.805 239.885 320.027 240.264 319.117C240.642 318.206 240.742 317.204 240.55 316.236C240.358 315.269 239.883 314.38 239.186 313.683C238.488 312.986 237.599 312.511 236.631 312.319C235.664 312.127 234.661 312.227 233.75 312.606C232.839 312.984 232.061 313.624 231.514 314.445C230.968 315.266 230.677 316.23 230.679 317.217C230.679 318.535 231.203 319.799 232.135 320.731C233.068 321.663 234.332 322.186 235.651 322.186Z" fill="#1A1A1A"/>
<path d="M275.379 322.457C276.415 322.457 277.429 322.149 278.291 321.574C279.153 320.998 279.825 320.179 280.221 319.222C280.618 318.264 280.722 317.211 280.52 316.195C280.317 315.178 279.818 314.245 279.085 313.512C278.352 312.779 277.418 312.28 276.401 312.078C275.385 311.875 274.331 311.979 273.373 312.376C272.415 312.773 271.597 313.444 271.021 314.306C270.445 315.168 270.137 316.181 270.137 317.217C270.137 318.607 270.69 319.939 271.673 320.922C272.656 321.905 273.989 322.457 275.379 322.457Z" fill="#1A1A1A"/>
<path d="M315.129 322.097C316.098 322.097 317.044 321.81 317.849 321.272C318.654 320.734 319.281 319.969 319.651 319.075C320.021 318.18 320.117 317.196 319.927 316.247C319.738 315.298 319.271 314.427 318.585 313.743C317.9 313.06 317.027 312.595 316.077 312.407C315.127 312.22 314.143 312.318 313.249 312.69C312.355 313.062 311.592 313.691 311.056 314.496C310.519 315.302 310.234 316.249 310.236 317.217C310.236 317.859 310.363 318.494 310.609 319.087C310.855 319.68 311.216 320.218 311.67 320.671C312.125 321.125 312.664 321.484 313.258 321.729C313.851 321.973 314.487 322.098 315.129 322.097Z" fill="#1A1A1A"/>
<path d="M276.604 552.86C276.447 552.868 276.29 552.843 276.143 552.787C275.996 552.73 275.863 552.643 275.751 552.532C275.64 552.421 275.553 552.287 275.497 552.14C275.44 551.994 275.415 551.836 275.423 551.679V500.182C275.423 499.87 275.547 499.571 275.768 499.351C275.988 499.13 276.287 499.006 276.599 499.006C276.91 499.006 277.21 499.13 277.43 499.351C277.65 499.571 277.774 499.87 277.774 500.182V551.679C277.782 551.835 277.757 551.992 277.702 552.138C277.646 552.284 277.56 552.417 277.45 552.528C277.34 552.639 277.208 552.726 277.062 552.783C276.917 552.84 276.761 552.866 276.604 552.86Z" fill="#1A1A1A"/>
<path d="M230.398 518.138H104.79C104.48 518.138 104.182 518.015 103.963 517.795C103.744 517.576 103.621 517.279 103.621 516.969C103.621 516.658 103.744 516.361 103.963 516.142C104.182 515.922 104.48 515.799 104.79 515.799H230.398C230.708 515.799 231.005 515.922 231.225 516.142C231.444 516.361 231.567 516.658 231.567 516.969C231.567 517.279 231.444 517.576 231.225 517.795C231.005 518.015 230.708 518.138 230.398 518.138Z" fill="#1A1A1A"/>
<path d="M230.397 536.038H104.79C104.479 536.038 104.18 535.914 103.959 535.694C103.739 535.474 103.615 535.175 103.615 534.863C103.615 534.552 103.739 534.253 103.959 534.032C104.18 533.812 104.479 533.688 104.79 533.688H230.397C230.709 533.688 231.008 533.812 231.229 534.032C231.449 534.253 231.573 534.552 231.573 534.863C231.573 535.175 231.449 535.474 231.229 535.694C231.008 535.914 230.709 536.038 230.397 536.038Z" fill="#1A1A1A"/>
<path d="M277.347 562.248C277.066 562.248 276.897 562.248 276.864 562.248H112.091C107.357 562.242 102.819 560.36 99.4708 557.016C96.1227 553.671 94.2374 549.135 94.2285 544.404V507.478C94.2374 502.747 96.1229 498.213 99.4714 494.87C102.82 491.527 107.358 489.648 112.091 489.645H276.987C278.801 489.579 280.58 490.161 282.004 491.287C282.51 491.77 282.908 492.357 283.169 493.006C283.431 493.656 283.552 494.354 283.522 495.053C283.576 495.944 283.438 496.837 283.115 497.669C282.793 498.501 282.295 499.255 281.655 499.877C280.315 500.983 278.595 501.519 276.864 501.372H112.091C110.469 501.375 108.914 502.021 107.767 503.168C106.62 504.314 105.974 505.868 105.971 507.489V544.415C105.974 546.036 106.62 547.59 107.767 548.737C108.914 549.883 110.469 550.529 112.091 550.532H276.987C278.801 550.472 280.577 551.053 282.004 552.173C282.51 552.657 282.908 553.243 283.169 553.893C283.431 554.543 283.552 555.24 283.522 555.94C283.577 556.829 283.438 557.72 283.116 558.551C282.794 559.382 282.295 560.133 281.655 560.753C280.447 561.755 278.917 562.286 277.347 562.248ZM277.212 491.95H112.091C107.981 491.953 104.04 493.587 101.134 496.492C98.2277 499.397 96.5937 503.336 96.5907 507.444V544.37C96.5937 548.478 98.2277 552.418 101.134 555.323C104.04 558.228 107.981 559.861 112.091 559.864H276.987C278.099 559.956 279.206 559.632 280.092 558.954C280.485 558.553 280.79 558.073 280.984 557.545C281.177 557.018 281.257 556.455 281.216 555.895C281.244 555.516 281.189 555.136 281.055 554.781C280.921 554.426 280.711 554.104 280.44 553.838C279.472 553.11 278.274 552.755 277.066 552.837H112.091C110.978 552.837 109.877 552.618 108.849 552.192C107.822 551.767 106.888 551.143 106.101 550.357C105.315 549.571 104.691 548.637 104.266 547.61C103.84 546.583 103.621 545.482 103.621 544.37V507.444C103.624 505.201 104.517 503.05 106.105 501.465C107.694 499.879 109.846 498.989 112.091 498.989H276.987C278.099 499.081 279.206 498.756 280.092 498.078C280.486 497.676 280.791 497.194 280.985 496.664C281.179 496.135 281.258 495.571 281.216 495.008C281.242 494.63 281.186 494.251 281.052 493.896C280.918 493.541 280.709 493.218 280.44 492.951C279.512 492.254 278.371 491.9 277.212 491.95Z" fill="#1A1A1A"/>
<path d="M146.701 485.867C146.549 485.868 146.398 485.836 146.257 485.776C146.117 485.716 145.99 485.629 145.885 485.518C145.78 485.408 145.699 485.277 145.646 485.134C145.592 484.991 145.569 484.839 145.577 484.687V451.336C145.577 451.181 145.607 451.028 145.666 450.885C145.726 450.742 145.813 450.611 145.922 450.502C146.032 450.392 146.162 450.305 146.306 450.246C146.449 450.186 146.602 450.156 146.757 450.156C146.913 450.156 147.066 450.186 147.209 450.246C147.353 450.305 147.483 450.392 147.593 450.502C147.702 450.611 147.789 450.742 147.849 450.885C147.908 451.028 147.939 451.181 147.939 451.336V484.687C147.947 484.849 147.921 485.011 147.861 485.162C147.802 485.314 147.71 485.45 147.592 485.562C147.475 485.674 147.334 485.759 147.18 485.812C147.027 485.865 146.863 485.884 146.701 485.867Z" fill="#1A1A1A"/>
<path d="M261.633 469.159H167.6C167.289 469.159 166.992 469.035 166.772 468.816C166.553 468.597 166.43 468.299 166.43 467.989C166.43 467.679 166.553 467.382 166.772 467.162C166.992 466.943 167.289 466.82 167.6 466.82H261.633C261.944 466.82 262.241 466.943 262.461 467.162C262.68 467.382 262.803 467.679 262.803 467.989C262.803 468.299 262.68 468.597 262.461 468.816C262.241 469.035 261.944 469.159 261.633 469.159Z" fill="#1A1A1A"/>
<path d="M269.867 484.687C272.87 484.687 275.322 482.573 275.322 479.976V456.048C275.322 453.451 272.87 451.337 269.867 451.337H146.408C146.408 451.337 142.393 451.539 142.393 448.593C142.393 444.905 146.408 445.22 146.408 445.22H269.867C276.728 445.22 282.341 450.077 282.341 456.014V479.942C282.341 485.879 276.717 490.736 269.867 490.736H146.408C146.408 490.736 142.393 490.938 142.393 487.992C142.393 484.304 146.408 484.619 146.408 484.619L269.867 484.687Z" fill="#1A1A1A"/>
<path d="M75.7253 511.886C75.512 511.892 75.3012 511.838 75.1178 511.729C71.2142 509.373 67.4579 506.782 63.8698 503.97C63.6236 503.778 63.4642 503.495 63.4263 503.186C63.3883 502.876 63.4749 502.563 63.6674 502.317C63.8598 502.071 64.1421 501.912 64.4522 501.874C64.7623 501.836 65.0747 501.923 65.3208 502.115C68.82 504.869 72.4864 507.404 76.2989 509.705C76.4362 509.779 76.5566 509.881 76.6523 510.004C76.7481 510.127 76.8172 510.268 76.8553 510.42C76.8934 510.571 76.8995 510.728 76.8734 510.882C76.8473 511.036 76.7898 511.182 76.704 511.312C76.6063 511.486 76.464 511.631 76.2921 511.732C76.1201 511.832 75.9246 511.886 75.7253 511.886ZM54.2864 495.503C53.9916 495.505 53.7068 495.397 53.4878 495.2C50.2259 492.231 46.9415 489.049 43.7358 485.743C43.6216 485.638 43.5304 485.51 43.4681 485.368C43.4058 485.226 43.3736 485.072 43.3736 484.917C43.3736 484.762 43.4058 484.608 43.4681 484.466C43.5304 484.324 43.6216 484.196 43.7358 484.091C43.9571 483.871 44.2563 483.747 44.5682 483.747C44.88 483.747 45.1793 483.871 45.4005 484.091C48.5725 487.363 51.812 490.511 55.0514 493.446C55.2787 493.656 55.414 493.947 55.4288 494.256C55.4435 494.565 55.3362 494.868 55.13 495.099C55.0209 495.223 54.8856 495.322 54.734 495.388C54.5823 495.454 54.418 495.485 54.2526 495.481L54.2864 495.503ZM35.4571 476.141C35.2881 476.145 35.1205 476.11 34.9667 476.04C34.8128 475.97 34.6766 475.866 34.5685 475.736C31.554 472.239 28.6747 468.686 26.0201 465.178C25.8322 464.929 25.7509 464.616 25.7941 464.307C25.8374 463.998 26.0014 463.719 26.2505 463.531C26.4996 463.343 26.8134 463.262 27.1224 463.305C27.4314 463.348 27.7105 463.512 27.8985 463.761C30.5193 467.236 33.365 470.744 36.3458 474.196C36.5471 474.434 36.6471 474.742 36.6239 475.053C36.6008 475.364 36.4563 475.654 36.2219 475.86C35.9991 476.046 35.713 476.138 35.4233 476.118L35.4571 476.141ZM19.1587 454.541C18.9608 454.546 18.7651 454.499 18.5913 454.404C18.4175 454.309 18.2719 454.17 18.169 454.001C15.7069 450.183 13.454 446.235 11.4201 442.172C11.3522 442.034 11.312 441.884 11.3021 441.731C11.2921 441.577 11.3126 441.423 11.3622 441.278C11.4118 441.132 11.4896 440.998 11.5912 440.882C11.6928 440.766 11.8162 440.672 11.9543 440.604C12.0924 440.536 12.2425 440.496 12.3961 440.486C12.5497 440.476 12.7038 440.496 12.8495 440.546C12.9952 440.596 13.1299 440.674 13.2455 440.775C13.3611 440.877 13.4554 441 13.5234 441.138C15.5361 445.117 17.7591 448.987 20.1824 452.731C20.2724 452.858 20.3349 453.002 20.3661 453.155C20.3974 453.307 20.3965 453.464 20.3637 453.617C20.3309 453.769 20.2668 453.913 20.1756 454.039C20.0843 454.165 19.968 454.271 19.8337 454.35C19.6348 454.484 19.3983 454.551 19.1587 454.541ZM7.42703 430.31C7.17309 430.319 6.9236 430.241 6.71935 430.09C6.51511 429.939 6.36813 429.723 6.30222 429.478C4.97706 425.129 3.89171 420.711 3.05137 416.243C2.9955 415.936 3.06352 415.62 3.24058 415.363C3.41764 415.106 3.68942 414.929 3.99631 414.872C4.14823 414.836 4.30605 414.832 4.45958 414.86C4.6131 414.889 4.75889 414.948 4.88797 415.036C5.01705 415.124 5.12654 415.238 5.20927 415.37C5.292 415.502 5.3462 415.651 5.36854 415.805C6.18096 420.191 7.24385 424.527 8.55183 428.792C8.60182 428.968 8.61063 429.152 8.57792 429.332C8.54521 429.511 8.47186 429.681 8.36317 429.828C8.25449 429.975 8.11357 430.094 7.95126 430.178C7.78895 430.261 7.60959 430.307 7.42703 430.31ZM2.45547 403.819C2.15715 403.819 1.87086 403.7 1.65992 403.49C1.44898 403.279 1.33066 402.993 1.33066 402.694C1.1057 399.726 0.993164 396.712 0.993164 393.699C0.993164 392.147 0.992977 390.584 1.08296 389.033C1.11072 388.728 1.25025 388.445 1.47456 388.238C1.69887 388.03 1.99217 387.913 2.29784 387.908C2.45344 387.908 2.60744 387.94 2.75013 388.002C2.89281 388.064 3.02118 388.155 3.12689 388.269C3.23261 388.383 3.3135 388.518 3.36443 388.665C3.41536 388.812 3.4351 388.968 3.42265 389.123C3.42265 390.641 3.34383 392.17 3.34383 393.699C3.34383 396.622 3.45636 399.58 3.67007 402.481C3.68925 402.639 3.67456 402.8 3.62668 402.953C3.57881 403.105 3.49887 403.245 3.39244 403.365C3.28602 403.484 3.15544 403.579 3.00936 403.644C2.86328 403.708 2.70505 403.741 2.54527 403.74L2.45547 403.819ZM3.58027 376.912C3.41428 376.901 3.25205 376.856 3.1041 376.78C2.95615 376.704 2.82537 376.598 2.71992 376.47C2.61446 376.341 2.5367 376.192 2.49117 376.032C2.44564 375.872 2.43355 375.705 2.45547 375.54C3.19457 371.048 4.22404 366.608 5.53743 362.249C5.63069 361.952 5.83802 361.703 6.11411 361.557C6.3902 361.412 6.7124 361.382 7.01072 361.473C7.16124 361.513 7.30199 361.583 7.42401 361.68C7.54602 361.776 7.64682 361.897 7.71976 362.034C7.7927 362.171 7.83615 362.323 7.84773 362.478C7.85931 362.633 7.83878 362.789 7.78704 362.935C6.49089 367.191 5.48357 371.53 4.77236 375.922C4.74936 376.219 4.60989 376.494 4.38434 376.688C4.15878 376.882 3.86569 376.978 3.56902 376.957L3.58027 376.912ZM11.4539 351.196C11.2781 351.193 11.1051 351.151 10.9475 351.073C10.8042 351.012 10.6752 350.921 10.5686 350.807C10.462 350.694 10.3801 350.559 10.3283 350.412C10.2765 350.266 10.2559 350.109 10.2676 349.954C10.2793 349.799 10.3231 349.647 10.3964 349.51C12.3652 345.394 14.6597 341.443 17.2578 337.692C17.3404 337.56 17.4494 337.446 17.5783 337.358C17.7072 337.27 17.853 337.21 18.0064 337.182C18.1598 337.153 18.3175 337.157 18.4694 337.192C18.6213 337.228 18.7641 337.295 18.8887 337.389C19.145 337.568 19.3197 337.841 19.3745 338.149C19.4293 338.457 19.3598 338.774 19.1812 339.03C16.6616 342.681 14.4315 346.523 12.5112 350.522C12.4275 350.725 12.2859 350.9 12.1039 351.024C11.922 351.148 11.7076 351.216 11.4874 351.219L11.4539 351.196ZM104.993 346.204C103.14 346.208 101.296 345.931 99.5261 345.383C97.7581 344.83 96.0596 344.076 94.4644 343.134C94.3315 343.055 94.2157 342.949 94.1234 342.825C94.0311 342.7 93.9644 342.559 93.9268 342.409C93.8892 342.258 93.8814 342.102 93.9042 341.949C93.9271 341.795 93.9799 341.648 94.0597 341.515C94.1394 341.382 94.2446 341.266 94.3691 341.174C94.4937 341.082 94.6353 341.015 94.7857 340.977C94.9361 340.94 95.0924 340.932 95.2457 340.955C95.3991 340.978 95.5464 341.031 95.6793 341.111C97.0908 341.972 98.6016 342.659 100.179 343.157C102.629 343.91 105.222 344.076 107.748 343.64C107.9 343.606 108.058 343.604 108.211 343.634C108.364 343.664 108.509 343.725 108.637 343.814C108.765 343.902 108.873 344.017 108.954 344.15C109.035 344.282 109.088 344.431 109.109 344.585C109.144 344.737 109.146 344.894 109.116 345.047C109.086 345.2 109.025 345.345 108.936 345.473C108.847 345.6 108.733 345.709 108.6 345.79C108.467 345.871 108.319 345.924 108.165 345.945C107.129 346.13 106.079 346.224 105.027 346.226L104.993 346.204ZM119.019 338.794C118.793 338.796 118.57 338.733 118.378 338.614C118.244 338.535 118.127 338.43 118.036 338.303C117.945 338.177 117.881 338.033 117.848 337.881C117.815 337.729 117.814 337.572 117.845 337.419C117.877 337.267 117.939 337.122 118.029 336.995C119.385 334.889 120.107 332.438 120.11 329.934C120.101 328.329 119.827 326.738 119.3 325.222C119.195 324.924 119.207 324.596 119.334 324.305C119.462 324.015 119.695 323.784 119.987 323.66C120.26 323.547 120.566 323.546 120.84 323.658C121.113 323.77 121.332 323.984 121.449 324.255L120.324 324.672L121.449 324.413C122.07 326.188 122.393 328.053 122.405 329.934C122.4 332.885 121.549 335.772 119.953 338.254C119.856 338.411 119.725 338.543 119.569 338.641C119.413 338.739 119.236 338.799 119.053 338.817L119.019 338.794ZM85.5786 333.835C85.3817 333.835 85.188 333.786 85.0151 333.691C84.8422 333.597 84.6955 333.461 84.5886 333.296C84.0375 332.452 83.5202 331.587 83.0365 330.71C81.3545 327.524 79.9835 324.184 78.9423 320.736C78.8484 320.438 78.8766 320.115 79.0211 319.837C79.1656 319.56 79.4143 319.351 79.7126 319.258C80.0109 319.164 80.3346 319.192 80.612 319.336C80.8894 319.481 81.098 319.73 81.1919 320.028C82.1933 323.331 83.5078 326.532 85.1175 329.585C85.5674 330.406 86.0621 331.227 86.5795 332.014C86.7473 332.276 86.806 332.593 86.7429 332.898C86.6799 333.203 86.5003 333.47 86.2423 333.644C86.0563 333.773 85.8381 333.847 85.6124 333.858L85.5786 333.835ZM26.9873 329.338C26.8228 329.337 26.6603 329.302 26.5095 329.237C26.3587 329.171 26.2226 329.075 26.1099 328.956C25.9016 328.723 25.7943 328.417 25.8111 328.105C25.828 327.793 25.9678 327.501 26.2 327.291C29.6315 324.264 33.3198 321.54 37.2231 319.151C37.4857 318.987 37.8027 318.933 38.1044 319.003C38.2537 319.038 38.3948 319.101 38.5196 319.19C38.6444 319.279 38.7503 319.392 38.8315 319.522C38.9128 319.652 38.9677 319.796 38.993 319.947C39.0183 320.099 39.0135 320.253 38.979 320.403C38.9445 320.552 38.881 320.693 38.792 320.818C38.703 320.942 38.5905 321.049 38.4605 321.13C34.6785 323.446 31.1 326.079 27.7636 329.001C27.5636 329.194 27.299 329.306 27.0211 329.315L26.9873 329.338ZM49.7196 314.9C49.4213 314.966 49.1092 314.91 48.8518 314.746C48.5945 314.581 48.413 314.322 48.3474 314.023C48.2817 313.725 48.3374 313.413 48.502 313.156C48.6665 312.899 48.9264 312.717 49.2247 312.652C53.3529 310.728 57.5893 309.046 61.9126 307.614C62.2109 307.519 62.5349 307.546 62.8133 307.689C63.0918 307.833 63.302 308.081 63.3974 308.379C63.4929 308.677 63.4659 309.001 63.3225 309.279C63.179 309.558 62.9309 309.768 62.6326 309.863C58.4169 311.27 54.2858 312.918 50.2598 314.799C50.0993 314.864 49.9259 314.891 49.7534 314.878L49.7196 314.9ZM113.463 314.428C113.307 314.431 113.153 314.401 113.01 314.341C112.866 314.281 112.737 314.192 112.63 314.08C109.56 311 105.807 308.689 101.675 307.333C101.376 307.232 101.13 307.016 100.991 306.733C100.852 306.451 100.831 306.125 100.932 305.826C101.034 305.528 101.249 305.283 101.532 305.143C101.815 305.004 102.141 304.983 102.439 305.084C106.911 306.538 110.974 309.031 114.295 312.359C114.483 312.512 114.617 312.722 114.676 312.958C114.736 313.193 114.717 313.441 114.623 313.665C114.529 313.889 114.366 314.077 114.157 314.2C113.947 314.324 113.704 314.376 113.463 314.35V314.428ZM76.5576 308.559C76.2976 308.565 76.0435 308.481 75.8384 308.321C75.6333 308.161 75.4899 307.935 75.4328 307.682C75.3316 307.299 75.2303 306.906 75.1403 306.557C74.9025 306.521 74.6824 306.41 74.5123 306.24C74.3423 306.07 74.2312 305.851 74.1954 305.613C74.1491 305.407 74.1615 305.193 74.2311 304.994C74.3007 304.795 74.4248 304.62 74.5892 304.488C73.7909 301.352 72.8069 298.266 71.6423 295.246C71.5077 294.948 71.4895 294.611 71.5915 294.301C71.6936 293.991 71.9085 293.73 72.1935 293.57C72.4539 293.438 72.7554 293.412 73.0346 293.498C73.3138 293.584 73.5487 293.775 73.6893 294.031L73.8469 294.402C75.0367 297.522 76.0506 300.705 76.8838 303.937C80.5465 303.334 84.251 303.022 87.963 303.004H88.8066C89.1184 303.004 89.4174 303.128 89.6379 303.348C89.8583 303.569 89.9822 303.867 89.9822 304.179C89.9822 304.491 89.8583 304.79 89.6379 305.01C89.4174 305.23 89.1184 305.354 88.8066 305.354H87.9855C84.4734 305.369 80.9683 305.662 77.5025 306.231C77.57 306.535 77.6487 306.838 77.7274 307.131C77.7729 307.28 77.7869 307.437 77.7684 307.592C77.7499 307.747 77.6994 307.896 77.6201 308.03C77.5407 308.164 77.4343 308.281 77.3076 308.372C77.1808 308.463 77.0365 308.526 76.8838 308.559C76.7858 308.562 76.6877 308.555 76.5914 308.536L76.5576 308.559ZM68.5266 282.81C68.2681 282.804 68.0185 282.714 67.8156 282.553C67.6128 282.393 67.4676 282.171 67.4018 281.921C66.3129 277.502 65.505 273.018 64.9833 268.496C64.9579 268.342 64.9649 268.185 65.0036 268.034C65.0423 267.883 65.112 267.741 65.2082 267.619C65.3045 267.496 65.4252 267.395 65.5627 267.321C65.7002 267.248 65.8516 267.203 66.007 267.191C66.3166 267.16 66.6261 267.25 66.8699 267.443C67.1137 267.637 67.2723 267.918 67.3117 268.226C67.8249 272.646 68.6174 277.028 69.6849 281.348C69.7569 281.65 69.7079 281.969 69.5482 282.236C69.3885 282.502 69.131 282.696 68.8303 282.776L68.5266 282.81ZM65.3658 256.06C65.2133 256.06 65.0623 256.029 64.9221 255.969C64.7818 255.909 64.6552 255.821 64.55 255.711C64.4447 255.601 64.3631 255.47 64.31 255.327C64.2569 255.184 64.2334 255.032 64.241 254.879C64.2637 250.331 64.5529 245.788 65.1071 241.274C65.1545 240.971 65.3158 240.697 65.5583 240.509C65.8009 240.321 66.1063 240.232 66.4118 240.262C66.5673 240.274 66.7186 240.318 66.8561 240.391C66.9937 240.465 67.1144 240.566 67.2107 240.689C67.3069 240.812 67.3766 240.953 67.4153 241.104C67.454 241.255 67.4607 241.413 67.4353 241.566C66.8938 245.988 66.6121 250.436 66.5917 254.89C66.5951 255.046 66.5664 255.2 66.5071 255.344C66.4478 255.488 66.3594 255.618 66.2473 255.725C66.1353 255.833 66.0019 255.916 65.856 255.97C65.7101 256.024 65.5548 256.047 65.3996 256.037L65.3658 256.06ZM68.6502 229.321C67.7503 229.13 67.3567 228.501 67.5254 227.871C68.6071 223.449 69.9557 219.098 71.5635 214.839C71.6131 214.692 71.6924 214.557 71.7967 214.442C71.901 214.328 72.0281 214.236 72.1696 214.172C72.3111 214.109 72.4643 214.076 72.6194 214.074C72.7745 214.073 72.928 214.103 73.0706 214.164C73.2185 214.213 73.355 214.291 73.471 214.395C73.587 214.499 73.6803 214.626 73.7448 214.767C73.8093 214.909 73.8434 215.062 73.8456 215.218C73.8476 215.374 73.8175 215.528 73.7569 215.671C72.1825 219.837 70.864 224.095 69.8088 228.422C69.7426 228.671 69.5969 228.891 69.3938 229.049C69.1908 229.208 68.9415 229.295 68.684 229.299L68.6502 229.321ZM78.1998 204.123C78.0075 204.126 77.8178 204.08 77.6486 203.988C77.508 203.921 77.3829 203.825 77.2812 203.707C77.1795 203.589 77.1034 203.451 77.0579 203.302C77.0125 203.153 76.9986 202.996 77.017 202.841C77.0354 202.687 77.0859 202.537 77.165 202.403C79.2891 198.378 81.6828 194.501 84.3299 190.799C84.4193 190.674 84.5324 190.568 84.6628 190.487C84.7931 190.406 84.938 190.352 85.0895 190.327C85.2409 190.302 85.3958 190.306 85.5453 190.341C85.6949 190.376 85.8363 190.44 85.9611 190.529C86.0859 190.619 86.1917 190.732 86.2728 190.862C86.3539 190.992 86.4086 191.137 86.4337 191.289C86.4588 191.44 86.4537 191.595 86.4189 191.744C86.3841 191.894 86.3204 192.035 86.2311 192.16C83.6481 195.781 81.3108 199.571 79.2348 203.505C79.1383 203.686 78.9939 203.837 78.8174 203.943C78.6409 204.048 78.4389 204.102 78.2336 204.101L78.1998 204.123ZM93.8573 182.254C93.6166 182.282 93.3729 182.232 93.1628 182.111C92.9527 181.991 92.7874 181.805 92.6913 181.583C92.5952 181.36 92.5737 181.113 92.6298 180.877C92.6858 180.642 92.8165 180.43 93.0024 180.275C96.1492 176.974 99.5326 173.908 103.126 171.099C103.37 170.908 103.681 170.823 103.989 170.861C104.296 170.898 104.577 171.057 104.768 171.302C104.959 171.546 105.045 171.857 105.007 172.164C104.969 172.472 104.81 172.753 104.565 172.944C101.066 175.682 97.7698 178.67 94.7009 181.883C94.5963 181.992 94.4707 182.08 94.3315 182.139C94.1924 182.199 94.0423 182.231 93.8908 182.231L93.8573 182.254ZM115.082 165.736C114.784 165.812 114.468 165.766 114.203 165.609C113.938 165.452 113.747 165.197 113.671 164.898C113.595 164.6 113.64 164.284 113.797 164.019C113.954 163.755 114.21 163.563 114.509 163.487C118.484 161.264 122.62 159.34 126.881 157.73C127.025 157.676 127.179 157.65 127.333 157.654C127.487 157.659 127.638 157.694 127.779 157.757C127.919 157.82 128.046 157.91 128.152 158.023C128.257 158.135 128.34 158.266 128.394 158.41C128.449 158.554 128.475 158.708 128.47 158.862C128.465 159.016 128.431 159.167 128.367 159.308C128.304 159.448 128.214 159.575 128.102 159.68C127.99 159.786 127.858 159.868 127.714 159.923C123.556 161.494 119.522 163.373 115.645 165.545C115.477 165.645 115.288 165.703 115.093 165.713L115.082 165.736ZM140.244 156.235C139.978 156.239 139.719 156.149 139.513 155.98C139.307 155.811 139.167 155.575 139.119 155.313C139.078 155.162 139.068 155.004 139.091 154.849C139.114 154.694 139.169 154.546 139.253 154.414C139.337 154.282 139.447 154.168 139.577 154.081C139.707 153.994 139.854 153.934 140.008 153.907C144.458 152.943 148.967 152.275 153.506 151.906C153.664 151.887 153.825 151.901 153.978 151.949C154.13 151.997 154.271 152.077 154.39 152.183C154.509 152.29 154.604 152.42 154.669 152.566C154.734 152.712 154.767 152.871 154.765 153.03C154.786 153.19 154.773 153.352 154.726 153.505C154.679 153.659 154.599 153.801 154.492 153.922C154.386 154.042 154.255 154.138 154.108 154.204C153.961 154.269 153.802 154.302 153.641 154.301C149.209 154.666 144.805 155.32 140.458 156.257L140.244 156.235ZM180.501 155.189C176.026 154.544 171.521 154.131 167.003 153.952C166.848 153.953 166.694 153.921 166.551 153.859C166.408 153.797 166.28 153.706 166.174 153.592C166.069 153.477 165.988 153.343 165.937 153.196C165.886 153.049 165.866 152.893 165.878 152.738C165.878 152.582 165.91 152.428 165.972 152.286C166.034 152.143 166.125 152.015 166.239 151.909C166.353 151.803 166.488 151.723 166.635 151.672C166.782 151.621 166.938 151.601 167.093 151.613C171.634 151.781 176.162 152.193 180.659 152.85C180.969 152.873 181.257 153.017 181.461 153.252C181.665 153.487 181.766 153.794 181.744 154.104C181.721 154.414 181.577 154.703 181.342 154.906C181.107 155.109 180.8 155.211 180.49 155.189H180.501Z" fill="#1A1A1A"/>
<path d="M452.727 385.075C452.574 385.083 452.422 385.059 452.279 385.006C452.136 384.953 452.005 384.871 451.895 384.766C451.784 384.661 451.697 384.534 451.637 384.394C451.577 384.254 451.546 384.103 451.546 383.951V342.921C451.546 342.609 451.67 342.31 451.89 342.09C452.11 341.869 452.409 341.746 452.721 341.746C453.033 341.746 453.332 341.869 453.552 342.09C453.773 342.31 453.897 342.609 453.897 342.921V383.951C453.897 384.102 453.866 384.252 453.807 384.391C453.747 384.531 453.661 384.657 453.551 384.762C453.442 384.867 453.313 384.949 453.171 385.003C453.029 385.057 452.878 385.081 452.727 385.075Z" fill="#1A1A1A"/>
<path d="M391.324 315.44C390.391 315.238 390.019 314.597 390.199 313.967C392.314 306.096 397.927 302.453 403.348 298.99C407.139 296.561 411.053 294.053 413.82 289.994C420.31 280.538 416.216 264.83 416.171 264.673C416.123 264.524 416.107 264.368 416.123 264.213C416.14 264.058 416.188 263.908 416.265 263.773C416.342 263.637 416.447 263.52 416.572 263.427C416.697 263.334 416.84 263.268 416.992 263.234C417.141 263.186 417.299 263.17 417.454 263.187C417.61 263.204 417.76 263.253 417.896 263.332C418.031 263.41 418.149 263.516 418.241 263.642C418.334 263.768 418.398 263.913 418.432 264.066C418.623 264.752 422.864 280.932 415.755 291.321C412.718 295.74 408.59 298.382 404.608 300.924C399.333 304.297 394.35 307.502 392.46 314.54C392.407 314.8 392.264 315.033 392.056 315.198C391.848 315.362 391.589 315.448 391.324 315.44Z" fill="#1A1A1A"/>
<path d="M513.523 315.44C513.264 315.447 513.011 315.365 512.806 315.207C512.602 315.05 512.457 314.826 512.398 314.575C510.508 307.536 505.525 304.342 500.25 300.958C496.268 298.417 492.14 295.775 489.103 291.356C481.994 281 486.291 264.606 486.471 263.909C486.553 263.61 486.75 263.357 487.019 263.204C487.288 263.051 487.607 263.012 487.905 263.094C488.204 263.176 488.457 263.373 488.61 263.641C488.763 263.91 488.803 264.229 488.721 264.527C488.721 264.684 484.536 280.572 491.038 290.029C493.793 294.054 497.719 296.561 501.51 299.024C506.931 302.487 512.533 306.085 514.647 314.001C514.695 314.149 514.711 314.306 514.695 314.461C514.679 314.616 514.63 314.766 514.553 314.901C514.476 315.037 514.372 315.154 514.246 315.247C514.121 315.34 513.978 315.406 513.826 315.44H513.523Z" fill="#1A1A1A"/>
<g clip-path="url(#clip2_373_1710)">
<path d="M350.392 138.314C345.183 138.314 340.292 139.602 335.982 141.837C329.795 125.618 314.009 114.078 295.5 114.078C291.931 114.078 288.441 114.525 285.109 115.34C275.299 101.408 259.038 92.2607 240.609 92.2607C222.179 92.2607 206.13 101.277 196.294 115.103C193.279 114.446 190.159 114.078 186.96 114.078C168.663 114.078 153.036 125.381 146.69 141.337C142.645 139.418 138.097 138.341 133.311 138.341C116.759 138.341 103.221 151.221 102.269 167.439H381.434C380.482 151.221 366.944 138.341 350.392 138.341V138.314Z" fill="white"/>
<path d="M126.504 188.062L174.932 240.932L223.391 188.062H194.254V167.001H154.151V188.062H126.504Z" fill="#C3D3E2"/>
<path d="M166.699 242.074L111.034 181.33H142.749V158.663H189.065V181.33H222.365L166.699 242.074ZM118.054 184.418L166.699 237.473L215.314 184.418H185.928V161.751H145.825V184.418H118.023H118.054Z" fill="#1A1A1A"/>
<path d="M90.8466 159.422C92.5388 143.834 105.839 131.848 121.783 131.848C126.463 131.848 130.958 132.847 135.162 134.845L136.563 135.502L137.145 134.056C143.808 117.285 159.831 106.429 177.97 106.429C181.116 106.429 184.289 106.771 187.436 107.454L188.361 107.665L188.917 106.876C199.308 92.2871 216.204 83.5601 234.157 83.5601C252.111 83.5601 269.192 92.366 279.557 107.113L280.138 107.927L281.09 107.691C284.528 106.85 288.071 106.403 291.614 106.403C309.726 106.403 326.199 117.706 332.65 134.555L333.232 136.08L334.686 135.318C339.181 132.978 344.02 131.795 349.097 131.795C365.041 131.795 378.341 143.782 380.033 159.37H210.387V162.261H383.126L383.047 160.737C382.016 142.888 367.103 128.904 349.097 128.904C344.152 128.904 339.234 129.982 334.766 132.058C327.521 114.92 310.387 103.511 291.614 103.511C288.176 103.511 284.713 103.879 281.355 104.642C270.408 89.6585 252.825 80.7212 234.157 80.7212C215.49 80.7212 198.092 89.5797 187.119 104.484C184.078 103.879 181.011 103.59 177.97 103.59C159.144 103.59 142.433 114.552 135.03 131.638C130.826 129.876 126.383 128.983 121.783 128.983C103.776 128.956 88.8635 142.941 87.8059 160.789L87.7266 162.314H150.471V159.422H90.8466Z" fill="#1A1A1A"/>
</g>
<path d="M675.787 443.932C675.787 454.126 667.518 462.394 657.324 462.394C647.131 462.394 638.862 454.126 638.862 443.932C638.862 433.738 647.131 425.448 657.324 425.448C667.518 425.448 675.787 433.716 675.787 443.932Z" fill="#C3D3E2"/>
<path d="M653.246 459.925C642.35 459.925 633.493 451.068 633.493 440.172C633.493 429.275 642.35 420.418 653.246 420.418C664.143 420.418 673 429.275 673 440.172C673 451.068 664.143 459.925 653.246 459.925ZM653.246 422.684C643.596 422.684 635.758 430.521 635.758 440.172C635.758 449.822 643.596 457.66 653.246 457.66C662.897 457.66 670.735 449.822 670.735 440.172C670.735 430.521 662.897 422.684 653.246 422.684Z" fill="#1A1A1A"/>
<path d="M654.629 448.848V451.226H652.137V448.848C650.551 448.666 649.011 448.191 647.788 447.715L648.105 445.178C649.147 445.699 650.619 446.265 652.114 446.492V441.712C650.03 440.942 647.901 439.9 647.901 437.045C647.901 434.191 649.781 433.081 652.114 432.809V430.567H654.606V432.809C655.943 432.923 657.279 433.262 658.412 433.625L657.981 435.981C656.962 435.641 655.807 435.301 654.606 435.165V440.149C656.622 440.896 658.593 441.893 658.593 444.543C658.593 447.375 656.803 448.553 654.606 448.87L654.629 448.848ZM652.137 439.197V435.21C651.118 435.414 650.393 435.958 650.393 437C650.393 438.042 651.118 438.744 652.137 439.22V439.197ZM654.629 442.663V446.424C655.512 446.175 656.147 445.586 656.147 444.521C656.147 443.637 655.535 443.071 654.629 442.663Z" fill="#1A1A1A"/>
<path d="M736.178 471.116C736.178 481.309 727.91 489.578 717.716 489.578C707.522 489.578 699.254 481.309 699.254 471.116C699.254 460.922 707.522 452.631 717.716 452.631C727.91 452.631 736.178 460.899 736.178 471.116Z" fill="#C3D3E2"/>
<path d="M713.662 487.108C702.765 487.108 693.908 478.251 693.908 467.355C693.908 456.459 702.765 447.601 713.662 447.601C724.558 447.601 733.415 456.459 733.415 467.355C733.415 478.251 724.558 487.108 713.662 487.108ZM713.662 449.867C704.011 449.867 696.173 457.705 696.173 467.355C696.173 477.005 704.011 484.843 713.662 484.843C723.312 484.843 731.15 477.005 731.15 467.355C731.15 457.705 723.312 449.867 713.662 449.867Z" fill="#1A1A1A"/>
<path d="M715.043 476.031V478.409H712.551V476.031C710.965 475.85 709.425 475.374 708.202 474.898L708.519 472.361C709.561 472.882 711.033 473.448 712.528 473.675V468.895C710.444 468.125 708.315 467.083 708.315 464.229C708.315 461.374 710.195 460.264 712.528 459.993V457.75H715.02V459.993C716.357 460.106 717.693 460.446 718.826 460.808L718.395 463.164C717.376 462.824 716.221 462.484 715.02 462.349V467.332C717.036 468.08 719.007 469.076 719.007 471.727C719.007 474.558 717.218 475.736 715.02 476.054L715.043 476.031ZM712.551 466.381V462.394C711.532 462.598 710.807 463.141 710.807 464.183C710.807 465.225 711.532 465.928 712.551 466.403V466.381ZM715.043 469.847V473.607C715.926 473.358 716.561 472.769 716.561 471.704C716.561 470.821 715.949 470.254 715.043 469.847Z" fill="#1A1A1A"/>
<path d="M746.983 409.975C746.983 420.169 738.715 428.437 728.498 428.437C718.282 428.437 710.036 420.169 710.036 409.975C710.036 399.781 718.304 391.49 728.498 391.49C738.692 391.49 746.983 399.759 746.983 409.975Z" fill="#C3D3E2"/>
<path d="M724.444 425.968C713.548 425.968 704.69 417.11 704.69 406.214C704.69 395.318 713.548 386.461 724.444 386.461C735.34 386.461 744.197 395.318 744.197 406.214C744.197 417.11 735.34 425.968 724.444 425.968ZM724.444 388.726C714.794 388.726 706.956 396.564 706.956 406.214C706.956 415.864 714.794 423.702 724.444 423.702C734.094 423.702 741.932 415.864 741.932 406.214C741.932 396.564 734.094 388.726 724.444 388.726Z" fill="#1A1A1A"/>
<path d="M725.826 414.89V417.269H723.334V414.89C721.748 414.709 720.208 414.233 718.984 413.758L719.302 411.221C720.344 411.742 721.816 412.308 723.311 412.534V407.755C721.227 406.984 719.098 405.942 719.098 403.088C719.098 400.234 720.978 399.124 723.311 398.852V396.609H725.803V398.852C727.139 398.965 728.476 399.305 729.609 399.668L729.178 402.023C728.159 401.684 727.003 401.344 725.803 401.208V406.192C727.819 406.939 729.79 407.936 729.79 410.586C729.79 413.418 728 414.596 725.803 414.913L725.826 414.89ZM723.334 405.24V401.253C722.314 401.457 721.589 402.001 721.589 403.043C721.589 404.085 722.314 404.787 723.334 405.263V405.24ZM725.826 408.706V412.466C726.709 412.217 727.343 411.628 727.343 410.564C727.343 409.68 726.732 409.114 725.826 408.706Z" fill="#1A1A1A"/>
<path d="M694.881 366.934C694.881 377.128 686.613 385.396 676.397 385.396C666.18 385.396 657.935 377.128 657.935 366.934C657.935 356.74 666.203 348.449 676.397 348.449C686.59 348.449 694.881 356.718 694.881 366.934Z" fill="#C3D3E2"/>
<path d="M672.342 382.927C661.446 382.927 652.589 374.07 652.589 363.174C652.589 352.277 661.446 343.42 672.342 343.42C683.238 343.42 692.095 352.277 692.095 363.174C692.095 374.07 683.238 382.927 672.342 382.927ZM672.342 345.685C662.692 345.685 654.854 353.523 654.854 363.174C654.854 372.824 662.692 380.662 672.342 380.662C681.992 380.662 689.83 372.824 689.83 363.174C689.83 353.523 681.992 345.685 672.342 345.685Z" fill="#1A1A1A"/>
<path d="M673.724 371.85V374.228H671.233V371.85C669.647 371.668 668.107 371.193 666.883 370.717L667.2 368.18C668.242 368.701 669.715 369.267 671.21 369.494V364.714C669.126 363.944 666.997 362.902 666.997 360.047C666.997 357.193 668.877 356.083 671.21 355.811V353.569H673.702V355.811C675.038 355.925 676.375 356.264 677.508 356.627L677.077 358.983C676.058 358.643 674.902 358.303 673.702 358.167V363.151C675.718 363.898 677.689 364.895 677.689 367.545C677.689 370.377 675.899 371.555 673.702 371.872L673.724 371.85ZM671.233 362.199V358.212C670.213 358.416 669.488 358.96 669.488 360.002C669.488 361.044 670.213 361.746 671.233 362.222V362.199ZM673.724 365.665V369.426C674.608 369.176 675.242 368.587 675.242 367.523C675.242 366.639 674.631 366.073 673.724 365.665Z" fill="#1A1A1A"/>
<path d="M693.364 517.577C693.364 527.77 685.095 536.039 674.902 536.039C664.708 536.039 656.439 527.77 656.439 517.577C656.439 507.383 664.708 499.092 674.902 499.092C685.095 499.092 693.364 507.36 693.364 517.577Z" fill="#C3D3E2"/>
<path d="M670.847 533.569C659.951 533.569 651.094 524.712 651.094 513.816C651.094 502.92 659.951 494.062 670.847 494.062C681.743 494.062 690.6 502.92 690.6 513.816C690.6 524.712 681.743 533.569 670.847 533.569ZM670.847 496.328C661.197 496.328 653.359 504.165 653.359 513.816C653.359 523.466 661.197 531.304 670.847 531.304C680.497 531.304 688.335 523.466 688.335 513.816C688.335 504.165 680.497 496.328 670.847 496.328Z" fill="#1A1A1A"/>
<path d="M672.228 522.492V524.87H669.737V522.492C668.151 522.31 666.61 521.835 665.387 521.359L665.704 518.822C666.746 519.343 668.219 519.909 669.714 520.136V515.356C667.63 514.586 665.5 513.544 665.5 510.689C665.5 507.835 667.381 506.725 669.714 506.453V504.211H672.206V506.453C673.542 506.567 674.879 506.906 676.011 507.269L675.581 509.625C674.562 509.285 673.406 508.945 672.206 508.809V513.793C674.222 514.54 676.193 515.537 676.193 518.188C676.193 521.019 674.403 522.197 672.206 522.514L672.228 522.492ZM669.737 512.841V508.855C668.717 509.058 667.992 509.602 667.992 510.644C667.992 511.686 668.717 512.388 669.737 512.864V512.841ZM672.228 516.307V520.09C673.112 519.841 673.746 519.252 673.746 518.188C673.746 517.304 673.134 516.738 672.228 516.33V516.307Z" fill="#1A1A1A"/>
<path d="M820.138 499.007L822.232 499.007L822.232 494.818L820.138 494.818L820.138 499.007Z" fill="#1A1A1A"/>
<path d="M820.138 446.96L822.232 446.96L822.232 454.94L820.138 454.94L820.138 446.96ZM820.138 462.92L822.232 462.92L822.232 470.9L820.138 470.9L820.138 462.92ZM820.138 478.879L822.232 478.879L822.232 486.859L820.138 486.859L820.138 478.879Z" fill="#1A1A1A"/>
<path d="M820.138 438.979L822.232 438.979L822.232 434.791L820.138 434.791L820.138 438.979Z" fill="#1A1A1A"/>
<path d="M820.138 400.881C813.776 400.881 808.618 406.039 808.618 412.401C808.618 418.763 813.776 423.92 820.138 423.92C826.5 423.92 831.657 418.763 831.657 412.401C831.657 406.039 826.5 400.881 820.138 400.881Z" fill="white"/>
<path d="M820.138 399.834C827.071 399.834 832.705 405.468 832.705 412.401C832.705 419.333 827.071 424.968 820.138 424.968C813.205 424.968 807.571 419.333 807.571 412.401C807.571 405.468 813.205 399.834 820.138 399.834ZM820.138 422.873C825.919 422.873 830.61 418.181 830.61 412.401C830.61 406.62 825.919 401.929 820.138 401.929C814.357 401.929 809.666 406.62 809.666 412.401C809.666 418.181 814.357 422.873 820.138 422.873Z" fill="#1A1A1A"/>
<path d="M773.013 299.237L775.107 299.237L775.107 307.552L773.013 307.552L773.013 299.237ZM773.013 315.867L775.107 315.867L775.107 324.182L773.013 324.182L773.013 315.867ZM773.013 332.497L775.107 332.497L775.107 340.812L773.013 340.812L773.013 332.497ZM773.013 349.127L775.107 349.127L775.107 357.442L773.013 357.442L773.013 349.127ZM773.013 365.757L775.107 365.757L775.107 374.072L773.013 374.072L773.013 365.757ZM773.013 382.387L775.107 382.387L775.107 390.702L773.013 390.702L773.013 382.387ZM773.013 399.017L775.107 399.017L775.107 407.332L773.013 407.332L773.013 399.017ZM773.013 415.647L775.107 415.647L775.107 423.962L773.013 423.962L773.013 415.647Z" fill="#1A1A1A"/>
<path d="M773.013 436.486L775.107 436.486L775.107 432.297L773.013 432.297L773.013 436.486Z" fill="#1A1A1A"/>
<path d="M774.06 426.014C767.698 426.014 762.541 431.172 762.541 437.534C762.541 443.896 767.698 449.053 774.06 449.053C780.422 449.053 785.58 443.896 785.58 437.534C785.58 431.172 780.422 426.014 774.06 426.014Z" fill="white"/>
<path d="M774.06 424.967C780.992 424.967 786.626 430.601 786.626 437.534C786.626 444.466 780.992 450.1 774.06 450.1C767.127 450.1 761.493 444.466 761.493 437.534C761.493 430.601 767.127 424.967 774.06 424.967ZM774.06 448.006C779.84 448.006 784.532 443.314 784.532 437.534C784.532 431.753 779.84 427.061 774.06 427.061C768.279 427.061 763.587 431.753 763.587 437.534C763.587 443.314 768.279 448.006 774.06 448.006Z" fill="#1A1A1A"/>
<path d="M880.97 290.871H771.771L771.809 290.213C772.193 283.548 777.742 278.323 784.419 278.323C786.107 278.323 787.733 278.645 789.26 279.291C792.027 272.961 798.196 268.902 805.147 268.902C806.251 268.902 807.381 269.014 808.485 269.225C812.557 263.701 819.023 260.412 825.887 260.412C832.75 260.412 839.279 263.726 843.35 269.299C844.579 269.026 845.845 268.89 847.098 268.89C854.037 268.89 860.367 273.11 863.06 279.452C864.711 278.695 866.473 278.31 868.298 278.31C874.988 278.31 880.523 283.535 880.908 290.201L880.945 290.858L880.97 290.871ZM773.112 289.63H879.63C878.972 283.933 874.119 279.564 868.31 279.564C866.448 279.564 864.673 279.998 863.035 280.855L862.415 281.177L862.166 280.519C859.808 274.301 853.751 270.131 847.111 270.131C845.808 270.131 844.517 270.292 843.238 270.602L842.829 270.702L842.581 270.354C838.77 264.905 832.527 261.654 825.899 261.654C819.271 261.654 813.09 264.881 809.28 270.267L809.044 270.602L808.647 270.516C807.493 270.267 806.326 270.131 805.172 270.131C798.519 270.131 792.636 274.14 790.178 280.333L789.93 280.954L789.334 280.668C787.795 279.936 786.144 279.564 784.431 279.564C778.623 279.564 773.77 283.933 773.112 289.63Z" fill="#1A1A1A"/>
<path d="M188.67 279.251C188.67 289.445 180.401 297.714 170.185 297.714C159.968 297.714 151.723 289.445 151.723 279.251C151.723 269.058 159.991 260.767 170.185 260.767C180.379 260.767 188.67 269.035 188.67 279.251Z" fill="#C3D3E2"/>
<path d="M166.13 295.244C155.234 295.244 146.377 286.387 146.377 275.491C146.377 264.595 155.234 255.737 166.13 255.737C177.026 255.737 185.884 264.595 185.884 275.491C185.884 286.387 177.026 295.244 166.13 295.244ZM166.13 258.003C156.48 258.003 148.642 265.841 148.642 275.491C148.642 285.141 156.48 292.979 166.13 292.979C175.78 292.979 183.618 285.141 183.618 275.491C183.618 265.841 175.78 258.003 166.13 258.003Z" fill="#1A1A1A"/>
<path d="M167.513 284.167V286.545H165.021V284.167C163.435 283.985 161.895 283.51 160.671 283.034L160.989 280.497C162.031 281.018 163.503 281.584 164.998 281.811V277.031C162.914 276.261 160.785 275.219 160.785 272.364C160.785 269.51 162.665 268.4 164.998 268.128V265.886H167.49V268.128C168.826 268.242 170.163 268.581 171.296 268.944L170.865 271.3C169.846 270.96 168.691 270.62 167.49 270.484V275.468C169.506 276.215 171.477 277.212 171.477 279.863C171.477 282.694 169.687 283.872 167.49 284.189L167.513 284.167ZM165.021 274.517V270.53C164.001 270.733 163.276 271.277 163.276 272.319C163.276 273.361 164.001 274.063 165.021 274.539V274.517ZM167.513 277.982V281.743C168.396 281.494 169.03 280.905 169.03 279.84C169.03 278.956 168.419 278.39 167.513 277.982Z" fill="#1A1A1A"/>
<path d="M188.67 337.785C188.67 347.979 180.401 356.247 170.185 356.247C159.968 356.247 151.723 347.979 151.723 337.785C151.723 327.591 159.991 319.3 170.185 319.3C180.379 319.3 188.67 327.568 188.67 337.785Z" fill="#C3D3E2"/>
<path d="M166.13 353.777C155.234 353.777 146.377 344.92 146.377 334.024C146.377 323.128 155.234 314.271 166.13 314.271C177.026 314.271 185.884 323.128 185.884 334.024C185.884 344.92 177.026 353.777 166.13 353.777ZM166.13 316.536C156.48 316.536 148.642 324.374 148.642 334.024C148.642 343.674 156.48 351.512 166.13 351.512C175.78 351.512 183.618 343.674 183.618 334.024C183.618 324.374 175.78 316.536 166.13 316.536Z" fill="#1A1A1A"/>
<path d="M167.512 342.7V345.079H165.02V342.7C163.435 342.519 161.894 342.043 160.671 341.567L160.988 339.03C162.03 339.551 163.503 340.118 164.998 340.344V335.564C162.914 334.794 160.784 333.752 160.784 330.898C160.784 328.044 162.664 326.934 164.998 326.662V324.419H167.489V326.662C168.826 326.775 170.162 327.115 171.295 327.477L170.865 329.833C169.845 329.493 168.69 329.154 167.489 329.018V334.001C169.506 334.749 171.476 335.746 171.476 338.396C171.476 341.228 169.687 342.406 167.489 342.723L167.512 342.7ZM165.02 333.05V329.063C164.001 329.267 163.276 329.811 163.276 330.853C163.276 331.895 164.001 332.597 165.02 333.073V333.05ZM167.512 336.516V340.276C168.396 340.027 169.03 339.438 169.03 338.373C169.03 337.49 168.418 336.924 167.512 336.516Z" fill="#1A1A1A"/>
<defs>
<clipPath id="clip0_373_1710">
<rect width="336.359" height="103.018" fill="white" transform="translate(545.825 287.636)"/>
</clipPath>
<clipPath id="clip1_373_1710">
<rect width="296.323" height="193.571" fill="white" transform="translate(471.658 33.9717)"/>
</clipPath>
<clipPath id="clip2_373_1710">
<rect width="295.4" height="153.906" fill="white" transform="translate(87.7266 80.7212)"/>
</clipPath>
</defs>
</svg>
