<svg width="308" height="243" viewBox="0 0 308 243" fill="none" xmlns="http://www.w3.org/2000/svg">
<g clip-path="url(#clip0_17_2430)">
<path d="M105.854 189.716C105.854 196.647 104.485 203.51 101.825 209.914C99.1652 216.317 95.2667 222.135 90.3519 227.036C85.4372 231.937 79.6026 235.825 73.1812 238.477C66.7598 241.129 59.8774 242.495 52.9269 242.495C38.8898 242.495 25.4277 236.934 15.5019 227.036C5.57621 217.138 0 203.714 0 189.716C0 175.718 5.57621 162.294 15.5019 152.396C25.4277 142.498 38.8898 136.937 52.9269 136.937C59.8774 136.937 66.7598 138.302 73.1812 140.955C79.6026 143.607 85.4372 147.495 90.3519 152.396C95.2667 157.297 99.1652 163.115 101.825 169.518C104.485 175.922 105.854 182.785 105.854 189.716Z" fill="white"/>
<path d="M80.0873 205.724C78.985 213.616 72.6711 219.445 63.4262 221.121C62.4253 221.302 61.4413 221.542 60.2207 221.795V230.429H52.3231V221.753C40.9496 220.489 34.4879 214.593 32.0933 204.406C36.2828 203.395 40.2443 202.439 44.4803 201.424C44.8055 202.266 45.1265 203.02 45.3968 203.791C47.5296 209.969 54.4854 212.976 61.0232 210.508C64.026 209.375 65.4281 207.139 65.6435 204.313C65.8378 201.744 64.6468 199.63 62.041 198.535C58.6623 197.12 55.1992 195.924 51.7656 194.639C49.9538 193.965 48.0913 193.376 46.3175 192.618C37.4105 188.827 33.487 182.443 34.6019 173.7C35.6915 165.184 41.1017 159.924 50.6844 158.054C51.073 157.978 51.4488 157.852 52.0697 157.683V151.05H59.8575L60.0391 157.595C60.0391 157.595 61.7707 157.784 66.2559 159.351C72.6331 161.575 76.2145 165.997 78.2502 172.116L67.2695 176.285C65.8969 174.268 64.7946 172.238 63.2826 170.511C60.9176 167.803 57.5811 167.096 54.0462 167.985C51.2799 168.671 49.4808 170.478 49.012 173.19C48.5263 176.012 49.4343 178.294 52.3442 179.562C55.2541 180.83 58.202 181.883 61.1414 183.024C63.6078 183.984 66.1292 184.826 68.5407 185.892C77.7856 189.956 81.4135 196.256 80.0873 205.724Z" fill="#C3D3E2"/>
<path d="M283.978 17.7347L238.91 1.81092C233.107 -0.233072 226.777 -0.233072 220.974 1.81092L175.906 17.7347C165.703 21.3355 158.848 30.7903 158.848 41.2728V115.551C158.848 132.397 166.831 148.557 182.571 163.562C194.434 174.874 208.16 183.091 217.582 187.989C220.848 189.682 224.427 190.685 228.099 190.937C228.137 190.937 229.526 190.988 230.417 190.988C230.916 190.988 231.389 190.988 231.764 190.937C235.443 190.689 239.03 189.685 242.302 187.989C251.728 183.091 265.454 174.874 277.313 163.562C293.058 148.548 301.036 132.397 301.036 115.551V41.2728C301.036 30.7945 294.181 21.3355 283.978 17.7347Z" fill="#C3D3E2"/>
<path d="M276.253 32.8919L238.467 19.5414C233.602 17.8231 228.293 17.8231 223.427 19.5414L185.637 32.8919C177.08 35.9158 171.333 43.8418 171.333 52.6312V114.911C171.333 129.041 178.027 142.585 191.224 155.173C201.17 164.657 212.679 171.548 220.581 175.658C223.32 177.072 226.322 177.911 229.399 178.122C229.433 178.122 230.594 178.164 231.342 178.164C231.764 178.164 232.161 178.164 232.474 178.122C235.557 177.913 238.564 177.074 241.309 175.658C249.211 171.548 260.736 164.657 270.666 155.173C283.864 142.585 290.558 129.041 290.558 114.911V52.6312C290.558 43.846 284.81 35.9158 276.253 32.8919Z" fill="white"/>
<path d="M171.294 125.528C171.294 125.528 190.456 142.118 196.787 154.912C203.117 167.707 212.413 191.417 220.889 200.443C228.947 209.022 233.357 214.105 247.788 216.868C262.219 219.63 265.851 220.064 277.735 226.268C289.62 232.471 296.213 242.516 296.213 242.516L172.443 242.436L166.868 235.883L170.669 234.969L152.636 146.396L171.294 125.528Z" fill="#C3D3E2"/>
<path d="M181.156 137.005C175.814 129.243 163.418 116.52 152.86 112.018L149.333 105.418C149.333 105.418 143.805 117.278 142.154 121.346C139.658 127.537 132.795 146.464 132.795 146.464L122.523 144.114L126.658 106.947L121.738 111.643C121.738 111.643 105.896 117.383 100.516 122.273C95.1351 127.162 80.5688 142.231 76.5693 148.7C72.5698 155.169 70.8002 159.111 73.0555 165.803C75.3107 172.495 80.6575 177.174 92.6138 175.767C100.706 174.82 102.556 174.441 102.906 174.293L103.417 180.611L95.6546 241.934C95.6546 241.934 97.2721 242.12 128.508 242.495C159.744 242.869 172.431 242.415 172.431 242.415C172.431 242.415 162.295 188.255 162.717 184.692C163.014 182.411 163.493 180.158 164.149 177.953C164.149 177.953 180.248 180.611 186.22 169.4C192.192 158.189 186.503 144.767 181.156 137.005ZM123.461 187.85L122.523 169.404L126.658 170.76L123.461 187.85Z" fill="#133C67"/>
<path d="M204.173 170.773C204.173 170.773 211.737 192.736 225.459 205.286C239.181 217.836 249.621 217.015 255.614 218.342C261.607 219.668 279.264 221.635 296.58 242.495C296.58 242.495 283.792 218.91 263.925 210.706C244.059 202.502 238.074 204.25 228.631 200.443C216.13 195.401 204.173 170.773 204.173 170.773Z" fill="#3A3A3A"/>
<path d="M144.426 75.4534C144.426 75.4534 142.918 81.1558 145.557 86.1843C145.557 86.1843 147.644 84.2345 150.305 84.6767C152.965 85.1189 154.95 87.9238 154.08 91.2256C153.21 94.5274 151.208 95.6308 150 95.6308L149.312 105.418L145.752 112.46C145.752 112.46 138.994 116.798 132.237 114.987C125.48 113.176 126.029 111.437 126.029 111.437L126.523 108.623V106.884C126.523 106.884 120.272 105.519 120.712 96.1741C121.046 90.1048 121.857 84.0709 123.136 78.1278L124.69 72.9139C124.69 72.9139 127.448 74.6953 132.452 75.1207C137.457 75.546 144.426 75.4534 144.426 75.4534Z" fill="white"/>
<path d="M84.1755 150.519L97.2679 150.385L99.8019 142.501C99.8019 142.501 88.1412 144.345 84.1755 150.519Z" fill="white"/>
<path d="M196.352 78.4563C196.352 78.4563 209.685 95.2771 215.424 95.2139C221.164 95.1507 227.98 89.5872 238.602 79.3575C245.107 73.0646 251.091 66.2577 256.496 59.0033L269.204 62.4652C269.204 62.4652 258 82.1539 246.424 96.0772C234.848 110 223.466 120.319 215.593 120.108C207.721 119.897 199.443 115.665 192.787 103.106C186.131 90.5475 184.607 80.9621 184.607 80.9621C184.607 80.9621 195.245 77.9677 196.352 78.4563Z" fill="#C3D3E2"/>
<path d="M124.517 144.783L130.594 128.813L129.154 122.601L133.149 117.084L136.131 123.991L133.72 129.672L132.503 146.207L124.517 144.783Z" fill="#C3D3E2"/>
<path d="M122.532 170.002L123.465 187.85L126.641 170.76L122.532 170.002Z" fill="#C3D3E2"/>
<path d="M240.916 161.457C238.999 161.907 237.073 162.333 235.143 162.72C234.889 162.741 234.653 162.858 234.484 163.048C234.315 163.238 234.225 163.486 234.235 163.739C234.02 165.546 233.779 167.357 233.458 169.147C233.344 169.612 233.067 170.021 232.677 170.301C231.224 171.341 229.72 172.322 228.217 173.278C227.894 173.482 227.509 173.564 227.131 173.51C225.138 173.089 223.17 172.579 221.181 172.167C221.001 172.145 220.819 172.165 220.648 172.227C220.478 172.288 220.325 172.389 220.201 172.52C219.044 174.205 217.967 175.915 216.822 177.599C216.678 177.765 216.604 177.979 216.616 178.198C216.628 178.416 216.724 178.622 216.885 178.77C218.11 180.299 219.314 181.849 220.48 183.424C220.715 183.767 220.825 184.18 220.792 184.595C220.553 186.397 220.263 188.193 219.922 189.981C219.841 190.423 219.606 190.821 219.259 191.106C217.717 192.146 216.138 193.127 214.546 194.088C214.035 194.395 213.815 194.673 213.971 195.313C214.436 197.221 214.846 199.141 215.238 201.066C215.259 201.32 215.377 201.555 215.569 201.723C215.76 201.892 216.01 201.979 216.265 201.967C218.081 202.178 219.88 202.473 221.696 202.679C221.962 202.697 222.22 202.784 222.442 202.932C222.664 203.079 222.844 203.283 222.963 203.521C223.862 204.991 224.821 206.419 225.852 207.788C226.028 207.987 226.15 208.229 226.204 208.49C226.259 208.75 226.245 209.021 226.164 209.274C225.678 211.14 225.269 213.023 224.792 214.888C224.701 215.106 224.701 215.351 224.79 215.569C224.88 215.787 225.051 215.962 225.269 216.055C226.958 217.082 228.605 218.14 230.235 219.247C230.78 219.618 231.118 219.504 231.579 219.142C233.09 217.942 234.611 216.754 236.178 215.625C236.556 215.393 237.008 215.309 237.445 215.389C239.235 215.735 241.015 216.133 242.783 216.585C243.252 216.694 243.668 216.964 243.957 217.348C245.03 218.986 246.035 220.675 247.023 222.364C247.327 222.882 247.627 223.084 248.261 222.932C250.174 222.473 252.1 222.065 254.03 221.669C254.265 221.657 254.487 221.552 254.645 221.377C254.803 221.203 254.886 220.973 254.874 220.738C255.069 218.754 255.297 216.767 255.584 214.8C255.705 214.334 255.982 213.924 256.37 213.637C257.759 212.568 259.237 211.612 260.593 210.517C260.81 210.3 261.081 210.147 261.379 210.072C261.677 209.998 261.989 210.006 262.282 210.096C264.056 210.546 265.847 210.938 267.616 211.359C267.85 211.457 268.113 211.461 268.35 211.369C268.587 211.277 268.778 211.097 268.883 210.866C269.905 209.182 270.97 207.539 272.076 205.918C272.448 205.379 272.351 205.037 271.983 204.583C270.801 203.104 269.673 201.58 268.491 200.102C268.314 199.902 268.194 199.659 268.144 199.397C268.093 199.136 268.114 198.866 268.203 198.615C268.647 196.85 268.934 195.052 269.348 193.283C269.447 192.878 269.688 192.521 270.028 192.277C271.717 191.198 273.406 190.171 275.147 189.16C275.367 189.068 275.542 188.895 275.637 188.677C275.732 188.458 275.737 188.212 275.653 187.989C275.201 186.077 274.779 184.161 274.386 182.236C274.264 181.605 273.989 181.394 273.368 181.352C271.413 181.162 269.462 180.931 267.519 180.636C267.078 180.536 266.685 180.286 266.408 179.928C265.285 178.454 264.204 176.942 263.161 175.414C262.926 175.071 262.827 174.654 262.882 174.243C263.325 172.095 263.849 169.964 264.364 167.745C262.417 166.515 260.508 165.277 258.557 164.106C258.384 164.045 258.2 164.026 258.018 164.049C257.836 164.071 257.662 164.135 257.51 164.236C255.93 165.395 254.401 166.628 252.822 167.795C252.506 168.026 252.119 168.138 251.728 168.111C249.887 167.892 248.057 167.624 246.238 167.307C245.794 167.213 245.399 166.966 245.123 166.607C244.08 165.07 243.087 163.499 242.12 161.916C242.019 161.697 241.837 161.527 241.612 161.441C241.387 161.355 241.137 161.361 240.916 161.457V161.457ZM255.698 189.303C256.177 191.522 255.986 193.833 255.148 195.943C254.311 198.054 252.864 199.869 250.992 201.16C249.12 202.451 246.906 203.159 244.63 203.195C242.354 203.231 240.119 202.593 238.206 201.362C236.294 200.131 234.791 198.363 233.886 196.28C232.982 194.197 232.717 191.893 233.126 189.66C233.534 187.427 234.598 185.365 236.181 183.735C237.765 182.105 239.798 180.979 242.023 180.501C243.502 180.175 245.031 180.145 246.522 180.412C248.013 180.679 249.436 181.238 250.709 182.056C251.982 182.874 253.08 183.936 253.939 185.18C254.798 186.424 255.402 187.825 255.715 189.303H255.698Z" fill="white"/>
<path d="M123.735 75.9967L124.652 72.9307C124.652 72.9307 130.261 75.1713 135.785 75.4155C141.309 75.6598 147.158 75.4155 147.158 75.4155C147.158 75.4155 145.684 81.6486 147.88 85.102C148.657 84.8186 149.478 84.676 150.305 84.6808C151.614 84.7103 152.332 85.0387 153.261 86.3906C153.261 86.3906 156.141 81.9854 156.762 78.8099C157.383 75.6344 157.079 73.1833 155.073 71.7514C154.035 70.9517 152.87 70.3311 151.626 69.9153C151.626 69.9153 150.068 63.5264 146.022 62.0229C141.976 60.5194 136.963 60.3804 134.129 62.9199C134.129 62.9199 129.293 60.3046 125.83 62.6673C121.713 65.4679 121.472 68.517 121.746 70.7323C122.021 72.9475 123.043 74.6911 123.735 75.9967Z" fill="#1A1A1A"/>
<path d="M247.011 221.416C246.741 221.41 246.479 221.327 246.255 221.178C246.03 221.029 245.853 220.819 245.744 220.574C244.806 218.973 243.792 217.263 242.686 215.57C242.454 215.288 242.137 215.089 241.782 215.002C240.067 214.56 238.281 214.16 236.469 213.81C236.157 213.761 235.837 213.817 235.561 213.97C233.872 215.196 232.22 216.497 230.979 217.474C230.728 217.709 230.403 217.849 230.06 217.872C229.716 217.895 229.376 217.799 229.095 217.6C227.634 216.602 226.016 215.566 224.154 214.421C223.853 214.279 223.617 214.03 223.491 213.722C223.366 213.415 223.362 213.072 223.478 212.761C223.706 211.864 223.922 210.963 224.137 210.058C224.365 209.089 224.593 208.116 224.847 207.147C224.912 206.959 224.925 206.757 224.884 206.562C224.843 206.367 224.75 206.186 224.614 206.04C223.613 204.709 222.633 203.264 221.7 201.744C221.62 201.561 221.49 201.403 221.325 201.289C221.16 201.174 220.967 201.107 220.767 201.095C219.821 200.99 218.871 200.86 217.924 200.725C217.08 200.607 216.201 200.489 215.34 200.388C214.989 200.388 214.651 200.259 214.39 200.026C214.129 199.793 213.963 199.472 213.925 199.124C213.524 197.069 213.114 195.191 212.679 193.388C212.443 192.437 212.911 192.003 213.452 191.674C214.757 190.891 216.463 189.846 218.148 188.726C218.397 188.507 218.564 188.21 218.621 187.884C218.951 186.145 219.242 184.338 219.487 182.523C219.507 182.224 219.427 181.928 219.259 181.68C218.224 180.278 217.088 178.804 215.669 177.048C215.45 176.826 215.321 176.532 215.306 176.221C215.291 175.91 215.392 175.604 215.589 175.363C216.079 174.639 216.556 173.906 217.038 173.173C217.671 172.204 218.305 171.232 218.963 170.28C219.136 170.074 219.36 169.916 219.612 169.821C219.865 169.727 220.137 169.699 220.404 169.741C221.43 169.956 222.448 170.196 223.466 170.431C224.483 170.667 225.387 170.882 226.354 171.088C226.618 171.113 226.882 171.051 227.106 170.912C228.838 169.821 230.248 168.882 231.549 167.964C231.843 167.75 232.055 167.442 232.149 167.092C232.495 165.146 232.744 163.192 232.922 161.709C232.922 161.361 233.051 161.025 233.285 160.766C233.519 160.507 233.841 160.343 234.189 160.307C235.996 159.953 237.876 159.549 239.945 159.043C240.259 158.943 240.598 158.957 240.903 159.084C241.207 159.21 241.456 159.441 241.605 159.734C242.399 161.031 243.459 162.741 244.599 164.409C244.806 164.666 245.095 164.844 245.418 164.914C247.108 165.213 248.886 165.479 250.909 165.723C251.183 165.727 251.452 165.646 251.677 165.491C252.425 164.94 253.16 164.371 253.895 163.807C254.714 163.175 255.533 162.543 256.37 161.933C256.594 161.782 256.852 161.69 257.121 161.663C257.39 161.637 257.662 161.677 257.911 161.781C259.453 162.703 260.969 163.668 262.493 164.636L263.722 165.424C263.801 165.473 263.862 165.545 263.897 165.63C263.933 165.716 263.941 165.81 263.921 165.9L263.52 167.622C263.144 169.231 262.772 170.806 262.443 172.39C262.411 172.687 262.486 172.985 262.654 173.232C263.773 174.866 264.829 176.336 265.889 177.726C266.095 177.992 266.385 178.181 266.713 178.261C268.512 178.534 270.421 178.766 272.537 178.977C272.885 178.966 273.225 179.089 273.487 179.318C273.748 179.548 273.913 179.869 273.947 180.215C274.302 182.017 274.707 183.891 275.214 185.955C275.319 186.271 275.303 186.614 275.171 186.919C275.039 187.224 274.798 187.47 274.496 187.61C272.461 188.802 270.839 189.792 269.394 190.718C269.155 190.902 268.984 191.16 268.909 191.451C268.727 192.226 268.571 193.009 268.415 193.788C268.212 194.795 267.992 195.797 267.76 196.791C267.689 196.976 267.67 197.176 267.705 197.371C267.74 197.565 267.827 197.746 267.958 197.895C268.562 198.64 269.145 199.398 269.732 200.161C270.319 200.923 270.873 201.639 271.455 202.367C271.707 202.607 271.859 202.933 271.881 203.279C271.903 203.626 271.793 203.968 271.574 204.237C270.518 205.779 269.462 207.438 268.385 209.169C268.229 209.479 267.964 209.72 267.641 209.848C267.317 209.975 266.959 209.979 266.632 209.86C265.788 209.645 264.922 209.438 264.065 209.249C263.14 209.038 262.219 208.828 261.302 208.592C261.083 208.52 260.848 208.51 260.624 208.565C260.4 208.621 260.196 208.738 260.035 208.904C259.271 209.523 258.46 210.1 257.679 210.66C257.045 211.11 256.412 211.561 255.799 212.033C255.504 212.25 255.287 212.558 255.183 212.909C254.862 214.993 254.642 217.07 254.473 218.805C254.475 219.137 254.351 219.457 254.128 219.702C253.904 219.948 253.597 220.101 253.265 220.131C251.188 220.553 249.304 220.948 247.509 221.395C247.344 221.421 247.177 221.428 247.011 221.416ZM236.258 212.905C236.391 212.903 236.524 212.914 236.655 212.938C238.479 213.292 240.287 213.696 242.014 214.138C242.59 214.279 243.098 214.615 243.45 215.09C244.565 216.775 245.587 218.518 246.529 220.144C246.854 220.692 246.973 220.565 247.277 220.502C249.084 220.081 250.976 219.66 253.063 219.239C253.443 219.163 253.515 219.083 253.553 218.7C253.73 216.931 253.95 214.842 254.266 212.736C254.404 212.155 254.744 211.642 255.225 211.287C255.85 210.807 256.492 210.352 257.13 209.893C257.903 209.342 258.701 208.773 259.448 208.171C259.719 207.916 260.053 207.736 260.416 207.651C260.778 207.566 261.157 207.578 261.514 207.686C262.422 207.918 263.342 208.108 264.259 208.339C265.175 208.571 265.986 208.735 266.843 208.954C266.95 208.983 267.059 208.999 267.169 209C267.274 209 267.405 209 267.612 208.664C268.681 206.924 269.762 205.252 270.822 203.694C271.046 203.37 271.033 203.248 270.746 202.89C270.159 202.157 269.589 201.411 269.014 200.666C268.44 199.92 267.849 199.158 267.253 198.417C267.034 198.162 266.884 197.854 266.82 197.524C266.756 197.194 266.778 196.853 266.886 196.534C267.126 195.557 267.329 194.568 267.528 193.586C267.684 192.795 267.844 192.003 268.026 191.219C268.156 190.708 268.467 190.259 268.9 189.956C270.357 189.021 271.992 188.027 274.032 186.831C274.369 186.633 274.416 186.519 274.331 186.145C273.842 184.073 273.432 182.186 273.064 180.375C272.988 179.975 272.896 179.895 272.448 179.853C270.311 179.642 268.389 179.406 266.573 179.137C266.016 179.019 265.518 178.707 265.171 178.256C264.103 176.854 263.034 175.372 261.906 173.721C261.609 173.276 261.486 172.738 261.56 172.209C261.894 170.617 262.265 169.033 262.641 167.42L262.971 166.005L262.004 165.394C260.487 164.426 258.98 163.466 257.442 162.543C257.254 162.542 257.067 162.579 256.893 162.653C256.049 163.259 255.25 163.887 254.435 164.518C253.7 165.087 252.957 165.656 252.205 166.203C251.801 166.505 251.298 166.648 250.795 166.603C248.759 166.359 246.947 166.094 245.262 165.795C244.699 165.682 244.198 165.365 243.856 164.906C242.707 163.221 241.639 161.503 240.84 160.193C240.646 159.873 240.524 159.873 240.418 159.873C240.327 159.876 240.236 159.889 240.148 159.911C238.074 160.4 236.178 160.808 234.357 161.175C233.956 161.25 233.868 161.36 233.808 161.806C233.635 163.301 233.386 165.272 233.031 167.239C232.897 167.819 232.556 168.331 232.073 168.679C230.755 169.619 229.332 170.566 227.587 171.665C227.165 171.929 226.662 172.035 226.168 171.964C225.197 171.758 224.23 171.543 223.263 171.303C222.296 171.063 221.236 170.827 220.218 170.617C220.032 170.615 219.851 170.674 219.702 170.785C219.048 171.737 218.435 172.697 217.789 173.662C217.308 174.399 216.826 175.136 216.332 175.864C216.146 176.138 216.151 176.227 216.375 176.504C217.794 178.282 218.938 179.764 219.981 181.175C220.288 181.609 220.427 182.138 220.374 182.666C220.129 184.502 219.838 186.326 219.5 188.078C219.401 188.635 219.1 189.137 218.655 189.488C216.966 190.638 215.23 191.691 213.921 192.483C213.498 192.727 213.456 192.837 213.549 193.224C213.993 195.035 214.394 196.926 214.816 198.994C214.896 199.39 215.002 199.482 215.454 199.537C216.324 199.638 217.194 199.76 218.06 199.883C218.997 200.009 219.943 200.139 220.885 200.249C221.22 200.276 221.542 200.388 221.821 200.574C222.1 200.761 222.326 201.016 222.477 201.314C223.398 202.814 224.361 204.233 225.345 205.526C225.561 205.78 225.709 206.084 225.776 206.41C225.843 206.736 225.827 207.073 225.729 207.392C225.48 208.356 225.248 209.321 225.02 210.289C224.804 211.195 224.597 212.1 224.357 213.006C224.259 213.376 224.302 213.477 224.635 213.679C226.511 214.829 228.141 215.878 229.619 216.88C229.936 217.099 230.041 217.108 230.434 216.796C231.68 215.802 233.335 214.501 235.046 213.267C235.404 213.025 235.826 212.898 236.258 212.9V212.905ZM243.547 201.647C240.601 201.631 237.764 200.531 235.581 198.558C233.398 196.585 232.022 193.878 231.717 190.955C231.412 188.033 232.199 185.101 233.928 182.722C235.657 180.343 238.205 178.684 241.085 178.063C241.918 177.883 242.767 177.791 243.619 177.789C246.573 177.79 249.422 178.882 251.617 180.854C253.811 182.825 255.197 185.537 255.505 188.467C255.813 191.396 255.023 194.336 253.287 196.719C251.551 199.102 248.992 200.76 246.103 201.373C245.263 201.554 244.406 201.644 243.547 201.643V201.647ZM243.64 178.686C242.845 178.685 242.053 178.768 241.275 178.934C238.611 179.508 236.252 181.042 234.652 183.243C233.051 185.444 232.322 188.156 232.604 190.86C232.885 193.564 234.158 196.069 236.177 197.895C238.197 199.721 240.821 200.739 243.547 200.754C244.35 200.754 245.149 200.669 245.934 200.502C248.603 199.932 250.967 198.398 252.571 196.194C254.175 193.991 254.904 191.274 254.62 188.566C254.335 185.858 253.056 183.351 251.029 181.527C249.002 179.703 246.371 178.691 243.64 178.686V178.686Z" fill="#1A1A1A"/>
<path d="M218.043 117.392C215.572 117.359 213.137 116.799 210.901 115.749C206.581 113.787 202.83 110.695 199.439 106.227C195.456 101.009 192.399 94.919 189.814 87.0603C189.155 85.0725 188.606 83.1015 188.023 81.0168C187.753 80.0566 187.487 79.0922 187.204 78.1235C187.183 78.0667 187.175 78.006 187.18 77.9458C187.185 77.8855 187.203 77.827 187.233 77.7742C187.262 77.7215 187.303 77.6757 187.352 77.6401C187.401 77.6044 187.457 77.5797 187.516 77.5676L195.807 75.285C196.652 75.0491 197.534 74.8133 198.396 74.569C198.641 74.4821 198.908 74.4796 199.155 74.562C199.401 74.6445 199.613 74.8071 199.756 75.0238C203.641 80.2756 208.599 85.2536 214.917 90.2443C216.556 91.5414 218.296 91.8994 220.45 91.3856C222.296 90.9392 224.116 90.1222 226.363 88.6903C231.211 85.6285 235.401 81.7454 238.86 78.351C245.25 72.0884 251.694 64.7983 258.57 56.0595C258.745 55.7805 259.011 55.5706 259.324 55.4654C259.637 55.3602 259.976 55.3662 260.285 55.4824C263.114 56.291 265.952 57.0701 268.79 57.8535L271.747 58.6748C271.89 58.7127 272.03 58.759 272.169 58.8137L272.368 58.8812C272.428 58.9016 272.484 58.9347 272.531 58.9783C272.578 59.0219 272.615 59.0749 272.64 59.1339C272.664 59.1928 272.676 59.2563 272.675 59.3202C272.673 59.3841 272.657 59.4469 272.629 59.5044L272.537 59.7024C272.473 59.8329 272.414 59.955 272.347 60.0772C263.967 74.2447 255.787 86.058 247.344 96.1824C243.121 101.257 237.918 107.073 231.473 111.765C229.506 113.18 227.437 114.447 225.282 115.555C223.053 116.743 220.569 117.373 218.043 117.392V117.392ZM188.192 78.3088C188.429 79.1511 188.657 79.9598 188.885 80.7726C189.463 82.8489 190.017 84.8114 190.663 86.7824C193.218 94.5442 196.233 100.55 200.148 105.688C203.451 110.013 207.087 113.037 211.273 114.932C215.99 117.072 220.564 117.013 224.893 114.747C227.008 113.666 229.039 112.43 230.97 111.049C237.335 106.416 242.483 100.642 246.681 95.6097C255.094 85.5021 263.245 73.7478 271.599 59.6224C271.519 59.5339 268.546 58.7168 268.546 58.7168C265.707 57.9335 262.869 57.1502 260.035 56.3416C259.736 56.2574 259.664 56.1099 259.271 56.6069C252.37 65.3795 245.9 72.6991 239.489 78.9911C235.992 82.4193 231.756 86.3401 226.819 89.444C224.492 90.9181 222.596 91.7857 220.644 92.2532C219.568 92.5639 218.431 92.6074 217.333 92.3798C216.236 92.1523 215.211 91.6606 214.347 90.9476C207.962 85.8937 202.944 80.8694 199.017 75.5587C198.898 75.3944 198.843 75.3945 198.805 75.3945C198.744 75.3987 198.683 75.41 198.624 75.4282C197.758 75.6767 196.892 75.9125 196.022 76.1484L188.192 78.3088Z" fill="#1A1A1A"/>
<path d="M48.5727 119.211C48.4784 119.21 48.3867 119.179 48.3109 119.123C48.2351 119.068 48.1789 118.989 48.1504 118.899C48.132 118.844 48.1248 118.785 48.1292 118.726C48.1337 118.667 48.1497 118.61 48.1764 118.558C48.2031 118.505 48.2399 118.459 48.2847 118.42C48.3295 118.382 48.3815 118.353 48.4376 118.335L86.9207 105.882C87.0256 105.867 87.1324 105.889 87.2224 105.945C87.3124 106.001 87.3799 106.086 87.4131 106.187C87.4463 106.287 87.4431 106.396 87.4041 106.494C87.365 106.592 87.2926 106.674 87.1994 106.724L48.7121 119.177C48.6675 119.195 48.6206 119.207 48.5727 119.211V119.211Z" fill="#1A1A1A"/>
<path d="M93.5048 81.1221C93.4194 81.1211 93.336 81.0964 93.264 81.0505L41.4352 48.1123C41.3355 48.0476 41.2654 47.9464 41.2401 47.8305C41.2148 47.7146 41.2363 47.5934 41.3 47.4932C41.3634 47.3934 41.464 47.3227 41.5795 47.2966C41.6951 47.2706 41.8163 47.2913 41.9166 47.3542L93.7455 80.2966C93.8459 80.3606 93.9169 80.4617 93.943 80.5776C93.9691 80.6936 93.9482 80.815 93.8849 80.9157C93.8431 80.9783 93.7866 81.0298 93.7204 81.0657C93.6542 81.1017 93.5802 81.121 93.5048 81.1221V81.1221Z" fill="#1A1A1A"/>
<path d="M112.696 48.4703C112.586 48.4692 112.48 48.4285 112.398 48.3558C112.315 48.2831 112.262 48.1831 112.248 48.0744L110.043 29.7249C110.036 29.6668 110.04 29.6076 110.055 29.551C110.071 29.4944 110.097 29.4415 110.133 29.3953C110.169 29.349 110.214 29.3104 110.266 29.2816C110.317 29.2529 110.373 29.2346 110.432 29.2279C110.491 29.2164 110.552 29.2175 110.61 29.2314C110.669 29.2452 110.724 29.2714 110.771 29.3081C110.819 29.3448 110.858 29.3911 110.886 29.4441C110.914 29.4971 110.931 29.5555 110.934 29.6154L113.139 47.9691C113.146 48.0275 113.142 48.0867 113.126 48.1433C113.11 48.1999 113.083 48.2528 113.046 48.2989C113.01 48.3451 112.964 48.3837 112.913 48.4124C112.861 48.441 112.805 48.4593 112.746 48.4661L112.696 48.4703Z" fill="#1A1A1A"/>
<path d="M150.254 93.4913C150.151 93.4912 150.051 93.4555 149.971 93.3903L146.74 90.7623C146.69 90.7208 146.65 90.6689 146.623 90.6103C146.596 90.5518 146.581 90.4879 146.581 90.4233C146.581 90.3587 146.596 90.2947 146.623 90.2362C146.65 90.1776 146.69 90.1257 146.74 90.0842L150.245 86.9762C150.336 86.9087 150.449 86.8776 150.561 86.8889C150.673 86.9001 150.778 86.953 150.853 87.037C150.928 87.1211 150.969 87.2302 150.968 87.3429C150.966 87.4556 150.922 87.5637 150.845 87.6458L147.728 90.4001L150.549 92.6996C150.595 92.7364 150.633 92.7818 150.662 92.8334C150.69 92.885 150.707 92.9417 150.713 93.0001C150.719 93.0585 150.713 93.1175 150.696 93.1736C150.679 93.2298 150.65 93.282 150.613 93.3271C150.571 93.3816 150.516 93.425 150.454 93.4536C150.391 93.4822 150.323 93.4952 150.254 93.4913Z" fill="#1A1A1A"/>
<path d="M134.623 115.833H134.26C128.369 115.737 125.813 112.043 125.712 111.891C125.677 111.844 125.651 111.79 125.638 111.732C125.625 111.675 125.624 111.615 125.636 111.557C125.647 111.499 125.671 111.444 125.705 111.395C125.74 111.347 125.784 111.307 125.835 111.277C125.933 111.21 126.053 111.186 126.169 111.208C126.286 111.23 126.389 111.297 126.455 111.394C126.481 111.428 128.871 114.852 134.273 114.941C137.056 115.012 143.142 114.385 145.904 111.731C145.946 111.691 145.996 111.659 146.051 111.637C146.106 111.616 146.164 111.606 146.223 111.607C146.282 111.608 146.34 111.621 146.394 111.644C146.448 111.668 146.497 111.702 146.537 111.744C146.578 111.786 146.61 111.836 146.632 111.891C146.653 111.946 146.663 112.004 146.662 112.062C146.661 112.121 146.648 112.179 146.625 112.233C146.601 112.286 146.567 112.335 146.525 112.376C143.64 115.117 137.858 115.833 134.623 115.833Z" fill="#1A1A1A"/>
<path d="M263.211 156.955C263.12 156.955 263.031 156.928 262.955 156.876C262.88 156.824 262.823 156.751 262.79 156.665C262.758 156.58 262.753 156.487 262.775 156.399C262.798 156.31 262.847 156.231 262.916 156.171C278.297 142.648 286.093 128.375 286.093 113.799V40.5696C286.093 34.8377 282.25 29.6196 276.532 27.6065L232.102 11.9102C228.735 10.729 225.063 10.729 221.696 11.9102L177.266 27.6065C171.548 29.6238 167.713 34.8461 167.713 40.5696V96.789C167.702 96.9005 167.65 97.0039 167.567 97.0792C167.484 97.1545 167.376 97.1961 167.263 97.1961C167.151 97.1961 167.043 97.1545 166.96 97.0792C166.876 97.0039 166.824 96.9005 166.813 96.789V40.5696C166.813 34.4587 170.897 28.9079 176.975 26.7642L221.4 11.0679C224.96 9.80948 228.846 9.80948 232.406 11.0679L276.832 26.7642C282.909 28.9079 286.997 34.4545 286.997 40.5696V113.799C286.997 128.658 279.095 143.141 263.511 156.841C263.43 156.917 263.322 156.958 263.211 156.955V156.955Z" fill="#1A1A1A"/>
<path d="M130.548 107.882C129.193 107.899 127.843 107.729 126.536 107.377C126.337 107.322 126.139 107.255 125.944 107.187C123.077 106.193 121.159 103.818 120.543 100.495C119.943 97.2521 120.361 93.925 120.767 90.7075L120.982 88.9471C121.632 83.6153 122.367 77.576 124.255 72.7665C124.299 72.6548 124.385 72.5649 124.495 72.5167C124.605 72.4685 124.73 72.466 124.842 72.5095C124.954 72.5531 125.044 72.6393 125.092 72.7491C125.141 72.8589 125.143 72.9833 125.1 73.095C123.25 77.7908 122.523 83.7753 121.882 89.0524L121.67 90.7665C121.269 93.9672 120.859 97.2269 121.434 100.335C121.987 103.325 123.698 105.46 126.248 106.345C126.43 106.408 126.612 106.463 126.789 106.517C129.471 107.284 132.448 106.972 134.742 106.623C134.8 106.61 134.86 106.61 134.919 106.622C134.977 106.634 135.032 106.658 135.081 106.694C135.129 106.729 135.169 106.773 135.199 106.825C135.229 106.877 135.247 106.934 135.253 106.993C135.271 107.11 135.242 107.229 135.172 107.325C135.103 107.42 134.998 107.484 134.881 107.503C133.448 107.739 132 107.866 130.548 107.882V107.882Z" fill="#1A1A1A"/>
<path d="M132.482 146.914C132.421 146.913 132.36 146.9 132.305 146.875C132.249 146.85 132.199 146.814 132.157 146.769C132.116 146.724 132.084 146.671 132.063 146.614C132.043 146.556 132.035 146.495 132.039 146.434L133.272 129.643C133.272 129.592 133.284 129.542 133.306 129.496L135.717 123.818C135.739 123.763 135.772 123.713 135.814 123.67C135.856 123.627 135.906 123.594 135.961 123.571C136.016 123.548 136.075 123.536 136.135 123.536C136.195 123.536 136.254 123.549 136.309 123.572C136.364 123.595 136.413 123.629 136.455 123.672C136.497 123.715 136.529 123.766 136.551 123.821C136.572 123.877 136.583 123.936 136.581 123.996C136.579 124.055 136.565 124.114 136.541 124.168L134.159 129.782L132.93 146.497C132.922 146.611 132.872 146.717 132.789 146.794C132.705 146.872 132.596 146.915 132.482 146.914V146.914Z" fill="#1A1A1A"/>
<path d="M133.715 130.119C133.627 130.119 128.909 129.163 128.909 129.163C128.793 129.139 128.69 129.071 128.625 128.972C128.559 128.873 128.535 128.753 128.559 128.636C128.582 128.52 128.651 128.418 128.75 128.353C128.849 128.287 128.97 128.263 129.087 128.287L133.808 129.234C133.918 129.256 134.016 129.318 134.082 129.407C134.149 129.497 134.179 129.608 134.167 129.719C134.156 129.83 134.103 129.932 134.019 130.006C133.936 130.08 133.827 130.12 133.715 130.119V130.119Z" fill="#1A1A1A"/>
<path d="M123.009 144.914C122.955 144.912 122.9 144.902 122.849 144.884C122.794 144.863 122.744 144.832 122.701 144.791C122.658 144.751 122.624 144.703 122.6 144.649C122.576 144.596 122.563 144.538 122.561 144.479C122.56 144.421 122.57 144.362 122.591 144.307L128.529 128.683L127.262 122.365C127.239 122.249 127.262 122.129 127.328 122.03C127.394 121.931 127.496 121.863 127.613 121.839C127.729 121.816 127.85 121.839 127.949 121.905C128.048 121.97 128.117 122.072 128.141 122.189L129.408 128.641C129.425 128.722 129.418 128.807 129.386 128.885L123.398 144.627C123.367 144.707 123.314 144.776 123.245 144.827C123.176 144.878 123.094 144.908 123.009 144.914V144.914Z" fill="#1A1A1A"/>
<path d="M273.402 161.377C273.312 161.378 273.224 161.352 273.149 161.302C273.074 161.252 273.016 161.181 272.982 161.098C272.949 161.014 272.941 160.923 272.96 160.835C272.979 160.748 273.024 160.668 273.09 160.606C288.459 145.95 296.251 130.203 296.251 113.799V40.5695C296.251 30.5545 289.688 21.5039 279.923 18.0547L235.498 2.35846C229.933 0.40436 223.865 0.40436 218.3 2.35846L173.875 18.0547C164.111 21.5039 157.548 30.5545 157.548 40.5695V45.8591C157.537 45.9705 157.485 46.074 157.401 46.1492C157.318 46.2245 157.21 46.2663 157.098 46.2663C156.985 46.2663 156.877 46.2245 156.794 46.1492C156.711 46.074 156.659 45.9705 156.648 45.8591V40.5695C156.648 30.1755 163.452 20.7753 173.575 17.2124L218.005 1.51616C223.761 -0.505382 230.037 -0.505382 235.793 1.51616L280.223 17.2124C290.359 20.7879 297.15 30.1755 297.15 40.5695V113.799C297.15 130.456 289.261 146.422 273.711 161.25C273.628 161.33 273.518 161.376 273.402 161.377Z" fill="#1A1A1A"/>
<path d="M149.405 96.1236C149.174 96.1251 148.944 96.1054 148.717 96.0647C147.591 95.8672 146.587 95.2383 145.921 94.3126C145.885 94.2656 145.86 94.2122 145.845 94.1553C145.831 94.0984 145.828 94.0393 145.836 93.9812C145.845 93.9232 145.864 93.8673 145.895 93.8168C145.925 93.7664 145.964 93.7224 146.012 93.6873C146.059 93.6521 146.112 93.6266 146.169 93.6121C146.226 93.5977 146.286 93.5945 146.344 93.603C146.402 93.6114 146.458 93.6312 146.509 93.6612C146.559 93.6911 146.603 93.7307 146.639 93.7777C147.17 94.518 147.97 95.0226 148.869 95.1844C149.221 95.2392 149.58 95.2392 149.933 95.1844C150.848 95.0123 151.677 94.5357 152.285 93.8326C153.03 92.9883 153.52 91.9519 153.7 90.8423C153.966 89.4067 153.664 87.924 152.855 86.7066C152.692 86.4723 152.504 86.2564 152.294 86.0623C151.808 85.5957 151.193 85.2846 150.528 85.1694C149.206 84.9505 147.107 85.498 146.014 86.7698C145.914 86.8809 145.822 86.9991 145.739 87.1235C145.709 87.1765 145.669 87.223 145.621 87.26C145.573 87.297 145.518 87.3239 145.459 87.3388C145.4 87.3538 145.338 87.3567 145.278 87.3472C145.218 87.3377 145.161 87.3161 145.109 87.2837C145.058 87.2513 145.013 87.2088 144.979 87.1588C144.944 87.1088 144.921 87.0523 144.909 86.9928C144.897 86.9332 144.898 86.8719 144.91 86.8126C144.923 86.7533 144.948 86.6972 144.983 86.6477C145.089 86.484 145.206 86.3277 145.334 86.1802C146.651 84.6556 149.084 84.0281 150.68 84.2892C151.519 84.4339 152.295 84.8239 152.91 85.4095C153.163 85.6471 153.391 85.9095 153.59 86.1928C154.527 87.6034 154.879 89.3217 154.57 90.9856C154.362 92.2673 153.796 93.4644 152.936 94.439C152.191 95.2895 151.178 95.8627 150.064 96.0647C149.846 96.1021 149.626 96.1218 149.405 96.1236Z" fill="#1A1A1A"/>
<path d="M153.236 86.9046C153.153 86.9052 153.073 86.8817 153.003 86.8372C152.953 86.8069 152.909 86.7669 152.874 86.7195C152.839 86.6722 152.813 86.6184 152.799 86.5613C152.785 86.5042 152.782 86.4448 152.791 86.3866C152.8 86.3284 152.821 86.2726 152.851 86.2223C158.903 76.3463 156.23 73.672 154.65 72.0758L154.359 71.7852C153.647 71.0823 152.752 70.5934 151.774 70.3744C151.716 70.3639 151.661 70.3421 151.612 70.3103C151.562 70.2784 151.519 70.2372 151.486 70.1889C151.452 70.1406 151.429 70.0862 151.416 70.0287C151.404 69.9713 151.403 69.9121 151.413 69.8543C151.424 69.7965 151.446 69.7413 151.478 69.6919C151.509 69.6425 151.551 69.5999 151.599 69.5665C151.648 69.533 151.702 69.5095 151.76 69.4971C151.817 69.4847 151.877 69.4837 151.935 69.4942C153.1 69.7489 154.166 70.3339 155.005 71.1788L155.284 71.4609C157.062 73.2424 160.035 76.2283 153.616 86.7024C153.574 86.7649 153.518 86.8163 153.451 86.8516C153.385 86.8869 153.311 86.9051 153.236 86.9046V86.9046Z" fill="#1A1A1A"/>
<path d="M145.684 86.9298C145.608 86.9294 145.533 86.9094 145.466 86.8718C145.4 86.8342 145.344 86.7802 145.304 86.715C145.19 86.5297 142.487 82.1161 144.084 75.6135C144.094 75.5548 144.117 75.4989 144.151 75.4496C144.185 75.4004 144.229 75.3587 144.28 75.3277C144.331 75.2966 144.388 75.2767 144.447 75.2694C144.507 75.262 144.567 75.2674 144.624 75.285C144.74 75.3139 144.839 75.3872 144.901 75.489C144.963 75.5908 144.982 75.7127 144.954 75.8283C143.45 81.9434 146.039 86.2013 146.069 86.2434C146.099 86.2934 146.12 86.3489 146.129 86.407C146.139 86.465 146.136 86.5242 146.123 86.5813C146.109 86.6385 146.084 86.6924 146.049 86.7399C146.015 86.7874 145.971 86.8276 145.921 86.8582C145.851 86.9051 145.769 86.93 145.684 86.9298V86.9298Z" fill="#1A1A1A"/>
<path d="M149.312 105.869C149.251 105.868 149.19 105.855 149.134 105.83C149.078 105.805 149.028 105.769 148.986 105.724C148.944 105.679 148.912 105.626 148.891 105.569C148.87 105.511 148.861 105.45 148.864 105.389L149.553 95.5971C149.556 95.5375 149.57 95.479 149.596 95.4252C149.622 95.3714 149.658 95.3234 149.703 95.284C149.748 95.2447 149.801 95.2149 149.858 95.1963C149.915 95.1778 149.975 95.1708 150.034 95.176C150.094 95.1792 150.152 95.194 150.205 95.2198C150.258 95.2455 150.306 95.2816 150.345 95.3259C150.385 95.3702 150.415 95.4218 150.434 95.4778C150.453 95.5337 150.461 95.5928 150.457 95.6518L149.764 105.444C149.76 105.559 149.71 105.669 149.625 105.748C149.541 105.828 149.428 105.871 149.312 105.869Z" fill="#1A1A1A"/>
<path d="M138.572 130.119C138.483 130.122 138.394 130.097 138.319 130.049C138.244 130.001 138.185 129.931 138.15 129.849L132.296 116.276L124.221 128.215C124.155 128.313 124.051 128.381 123.935 128.404C123.818 128.426 123.697 128.402 123.598 128.335C123.5 128.269 123.432 128.166 123.409 128.05C123.386 127.933 123.411 127.812 123.478 127.714L132.013 115.08C132.06 115.012 132.123 114.959 132.198 114.925C132.272 114.891 132.354 114.877 132.436 114.886C132.516 114.893 132.593 114.922 132.659 114.969C132.724 115.017 132.775 115.081 132.807 115.155L138.986 129.474C139.033 129.584 139.034 129.707 138.99 129.818C138.945 129.928 138.859 130.017 138.749 130.064C138.695 130.095 138.635 130.114 138.572 130.119Z" fill="#1A1A1A"/>
<path d="M147.673 150.124C147.593 150.124 147.514 150.103 147.444 150.062C147.375 150.022 147.318 149.963 147.279 149.893C147.24 149.823 147.221 149.743 147.223 149.663C147.226 149.583 147.25 149.505 147.293 149.437L152.737 140.698L149.392 131.555C149.346 131.443 149.346 131.317 149.392 131.205C149.418 131.152 149.455 131.104 149.5 131.065C149.545 131.026 149.597 130.997 149.654 130.978L157.746 128.291L152.678 112.708L149.299 106.391C148.797 107.44 147.834 109.474 146.588 112.22C143.758 118.47 139.586 128.127 135.801 138.601C134.902 141.09 134.112 143.495 133.187 146.641C133.171 146.697 133.143 146.75 133.106 146.796C133.069 146.842 133.024 146.88 132.972 146.908C132.92 146.936 132.863 146.954 132.804 146.96C132.746 146.966 132.686 146.961 132.63 146.944C132.516 146.91 132.42 146.832 132.363 146.728C132.306 146.624 132.293 146.502 132.326 146.388C133.267 143.221 134.053 140.803 134.957 138.298C138.758 127.794 142.935 118.116 145.773 111.849C147.631 107.756 148.86 105.233 148.873 105.208C148.91 105.134 148.966 105.071 149.036 105.026C149.106 104.982 149.187 104.957 149.27 104.955C149.356 104.95 149.441 104.97 149.516 105.013C149.591 105.056 149.652 105.119 149.692 105.195L153.518 112.355L158.738 128.43C158.775 128.542 158.765 128.663 158.712 128.768C158.659 128.873 158.567 128.953 158.455 128.99L150.397 131.681L153.658 140.597C153.68 140.661 153.688 140.73 153.681 140.798C153.674 140.865 153.651 140.931 153.616 140.989L148.058 149.909C148.018 149.975 147.961 150.029 147.894 150.067C147.826 150.104 147.75 150.124 147.673 150.124V150.124Z" fill="#1A1A1A"/>
<path d="M123.546 188.853C123.493 188.853 123.442 188.843 123.393 188.823C123.296 188.789 123.213 188.722 123.16 188.633C123.107 188.545 123.086 188.441 123.102 188.339C123.102 188.267 124.225 180.931 126.354 170.709C126.366 170.652 126.389 170.597 126.422 170.549C126.455 170.5 126.498 170.458 126.547 170.426C126.596 170.394 126.651 170.372 126.709 170.361C126.767 170.35 126.826 170.35 126.884 170.362C126.942 170.374 126.997 170.397 127.045 170.43C127.094 170.463 127.136 170.505 127.168 170.554C127.2 170.603 127.223 170.658 127.234 170.716C127.245 170.774 127.244 170.833 127.232 170.89C125.792 177.793 124.821 183.373 124.339 186.284L133.082 172.242C133.145 172.142 133.245 172.07 133.36 172.043C133.476 172.017 133.598 172.037 133.698 172.099C133.799 172.162 133.871 172.262 133.898 172.377C133.925 172.492 133.905 172.614 133.842 172.714L123.921 188.642C123.882 188.706 123.826 188.759 123.761 188.795C123.695 188.832 123.621 188.852 123.546 188.853V188.853Z" fill="#1A1A1A"/>
<path d="M53.6281 238.772C40.2376 238.756 27.4 233.445 17.9315 224.003C8.46302 214.561 3.13674 201.759 3.12109 188.406C3.13339 175.051 8.45819 162.246 17.9271 152.801C27.3959 143.357 40.2354 138.044 53.6281 138.028C62.2521 138.028 69.322 139.637 75.8851 143.082C75.9374 143.109 75.9838 143.147 76.0215 143.192C76.0592 143.238 76.0875 143.29 76.1047 143.347C76.122 143.403 76.1279 143.462 76.1221 143.521C76.1163 143.58 76.0989 143.636 76.0709 143.688C76.0462 143.743 76.0102 143.791 75.9653 143.83C75.9205 143.87 75.8678 143.899 75.8107 143.916C75.7536 143.934 75.6935 143.939 75.6342 143.932C75.575 143.924 75.518 143.905 75.467 143.874C69.039 140.504 62.1001 138.917 53.6281 138.917C40.4718 138.931 27.8588 144.15 18.5574 153.429C9.25612 162.707 4.0265 175.287 4.01644 188.406C4.03209 201.522 9.26404 214.097 18.5646 223.371C27.8652 232.646 40.475 237.863 53.6281 237.879C60.387 237.895 67.0767 236.522 73.2793 233.844C73.3885 233.797 73.5121 233.794 73.623 233.838C73.7339 233.881 73.8229 233.967 73.8705 234.076C73.9181 234.185 73.9204 234.308 73.8769 234.419C73.8333 234.529 73.7475 234.618 73.6383 234.665C67.3215 237.389 60.51 238.787 53.6281 238.772V238.772Z" fill="#1A1A1A"/>
<path d="M85.9071 227.401C85.8405 227.402 85.7744 227.388 85.7142 227.36C85.654 227.331 85.6014 227.289 85.5608 227.236C85.5228 227.191 85.4942 227.139 85.4766 227.082C85.459 227.026 85.4527 226.967 85.4582 226.908C85.4637 226.849 85.4809 226.792 85.5086 226.74C85.5364 226.688 85.5742 226.642 85.6199 226.605C90.1648 222.879 94.0088 218.377 96.9723 213.309C96.9992 213.256 97.0373 213.209 97.0838 213.171C97.1304 213.134 97.1844 213.106 97.2423 213.091C97.3002 213.076 97.3607 213.073 97.4197 213.083C97.4787 213.093 97.535 213.116 97.5847 213.149C97.6358 213.178 97.6806 213.217 97.7165 213.264C97.7523 213.31 97.7785 213.364 97.7934 213.421C97.8084 213.477 97.8118 213.537 97.8035 213.595C97.7952 213.653 97.7754 213.709 97.7452 213.76C94.7336 218.924 90.8253 223.512 86.2028 227.312C86.1175 227.375 86.013 227.406 85.9071 227.401V227.401Z" fill="#1A1A1A"/>
<path d="M56.5928 229.839H49.3498C49.2314 229.838 49.1182 229.791 49.0344 229.707C48.9507 229.624 48.9032 229.511 48.9021 229.393V221.121C38.7027 219.769 32.638 213.991 30.3701 203.475C30.3455 203.362 30.3656 203.244 30.4262 203.145C30.4867 203.046 30.5831 202.974 30.6953 202.944L42.0518 199.967C42.161 199.939 42.2764 199.954 42.3756 200.007C42.4748 200.059 42.5506 200.147 42.5882 200.253C42.7107 200.611 42.8374 200.952 42.9599 201.289C43.1246 201.74 43.2851 202.182 43.4329 202.633C43.8422 204.014 44.539 205.293 45.4778 206.388C46.4165 207.482 47.5762 208.366 48.881 208.984C50.1738 209.576 51.5775 209.89 53.0003 209.905C54.4231 209.919 55.8329 209.634 57.1376 209.068C59.5703 208.07 60.8964 206.12 61.0949 203.252C61.2723 200.788 60.1953 198.893 58.0583 197.912C55.9213 196.93 53.7885 196.088 51.6768 195.246C50.6717 194.825 49.6623 194.437 48.6572 194.024C48.0997 193.801 47.5337 193.603 46.9678 193.367C45.8697 192.946 44.7337 192.525 43.6356 191.999C35.2903 188.111 31.5906 181.588 32.6549 172.626C33.6854 163.899 38.7661 158.504 47.7534 156.592C47.9606 156.548 48.1651 156.492 48.3657 156.424L48.6783 156.327V150.01C48.6783 149.891 48.7254 149.778 48.8094 149.694C48.8933 149.61 49.0072 149.563 49.1259 149.563H56.2507C56.3652 149.563 56.4754 149.607 56.5586 149.685C56.6419 149.763 56.6919 149.871 56.6984 149.985L56.8631 156.167C58.7125 156.594 60.5257 157.164 62.2859 157.873C65.3003 158.972 67.9375 160.907 69.8879 163.449C69.9607 163.543 69.9932 163.661 69.9781 163.779C69.9631 163.897 69.9018 164.004 69.8077 164.076C69.7136 164.149 69.5944 164.181 69.4764 164.166C69.3584 164.151 69.2512 164.09 69.1784 163.996C67.3382 161.589 64.8475 159.756 61.9987 158.711C58.0119 157.199 56.4197 156.988 56.407 156.984C56.3002 156.977 56.2002 156.929 56.1273 156.851C56.0544 156.773 56.014 156.67 56.0142 156.563L55.8495 150.456H49.5567V156.643C49.5554 156.739 49.5225 156.833 49.463 156.909C49.4035 156.985 49.3208 157.039 49.2273 157.064L48.6149 157.245C48.3573 157.325 48.1461 157.393 47.9265 157.439C39.3531 159.263 34.509 164.396 33.5291 172.697C32.5366 181.238 36.0631 187.438 44.0199 191.165C45.0884 191.657 46.2076 192.091 47.293 192.504C47.8632 192.723 48.4291 192.925 48.9824 193.169C49.9875 193.582 50.9927 193.988 51.9978 194.387C54.1095 195.229 56.3056 196.105 58.4173 197.069C60.8837 198.202 62.1803 200.468 61.9734 203.285C61.758 206.465 60.1996 208.76 57.4713 209.868C56.0506 210.481 54.5166 210.788 52.969 210.771C51.4213 210.753 49.8947 210.411 48.4882 209.767C47.0731 209.095 45.8155 208.134 44.7968 206.947C43.7782 205.759 43.0214 204.371 42.5755 202.873C42.4362 202.452 42.2799 202.009 42.1152 201.563C42.0392 201.348 41.9589 201.142 41.8787 200.91L31.3414 203.673C33.6136 213.642 39.5305 219.066 49.4047 220.258C49.5102 220.27 49.608 220.319 49.6808 220.396C49.7535 220.473 49.7963 220.573 49.8017 220.679V228.904H56.1367V220.721C56.1349 220.622 56.1682 220.525 56.2308 220.448C56.2934 220.371 56.3812 220.319 56.4788 220.3L57.1165 220.144C57.9612 219.942 58.6834 219.765 59.4309 219.613C67.7805 217.967 73.3679 212.353 74.352 204.599C75.5303 195.334 72.2403 189.177 64.0259 185.227C62.5942 184.54 61.0696 183.934 59.6379 183.348C58.8439 183.028 58.0499 182.708 57.2601 182.375C56.5379 182.068 55.8073 181.769 55.0809 181.47C53.1339 180.665 51.1194 179.836 49.1682 178.909C46.5117 177.646 45.3672 175.262 45.8655 172.061C46.3216 169.206 48.0743 167.231 50.8068 166.494C54.4136 165.521 57.5853 166.494 59.7434 169.185C60.6989 170.442 61.5613 171.766 62.3239 173.148C62.6195 173.649 62.9152 174.154 63.2235 174.664L66.6021 173.27C66.7142 173.225 66.8396 173.226 66.9509 173.273C67.0622 173.32 67.1502 173.409 67.1955 173.521C67.2409 173.632 67.2399 173.757 67.1928 173.868C67.1456 173.979 67.0562 174.067 66.9442 174.112L63.2066 175.65C63.1096 175.695 62.999 175.702 62.897 175.669C62.7951 175.636 62.7095 175.566 62.6575 175.473C62.269 174.849 61.9058 174.209 61.5468 173.611C60.805 172.267 59.9666 170.977 59.0381 169.753C56.5717 166.666 53.324 166.746 51.0138 167.37C48.6107 168.018 47.1283 169.694 46.7271 172.213C46.2836 175.064 47.2043 176.993 49.5314 178.109C51.4488 179.019 53.4507 179.844 55.3892 180.636C56.1198 180.939 56.8504 181.238 57.5769 181.546C58.3033 181.853 59.1522 182.198 59.9419 182.514C61.4074 183.108 62.9236 183.719 64.3807 184.418C73.0047 188.566 76.4425 195.014 75.2051 204.717C74.1746 212.749 68.1859 218.792 59.5787 220.494C58.8481 220.641 58.1301 220.818 57.3066 221.02L57.0067 221.088V229.418C57.0008 229.526 56.9556 229.629 56.8794 229.706C56.8032 229.784 56.7014 229.831 56.5928 229.839V229.839Z" fill="#1A1A1A"/>
<path d="M307.548 242.945H3.20134C3.08222 242.944 2.96836 242.896 2.88452 242.812C2.80068 242.727 2.75366 242.613 2.75366 242.495C2.75476 242.377 2.80228 242.264 2.886 242.18C2.96972 242.097 3.08295 242.049 3.20134 242.048H307.548C307.611 242.042 307.674 242.049 307.734 242.069C307.794 242.089 307.849 242.121 307.896 242.163C307.942 242.205 307.979 242.257 308.005 242.314C308.031 242.372 308.044 242.434 308.044 242.497C308.044 242.559 308.031 242.622 308.005 242.679C307.979 242.737 307.942 242.788 307.896 242.83C307.849 242.873 307.794 242.905 307.734 242.924C307.674 242.944 307.611 242.951 307.548 242.945Z" fill="#1A1A1A"/>
<path d="M203.13 166.607C203.05 166.607 202.971 166.584 202.902 166.543C202.832 166.501 202.776 166.442 202.737 166.372C201.179 163.461 199.071 159.545 196.601 155.047C192.377 147.394 175.518 128.308 169.246 124.101C169.192 124.071 169.144 124.03 169.106 123.981C169.068 123.931 169.04 123.875 169.026 123.814C169.011 123.754 169.009 123.691 169.02 123.63C169.031 123.569 169.055 123.511 169.089 123.459C169.124 123.408 169.17 123.364 169.222 123.331C169.275 123.298 169.334 123.276 169.396 123.267C169.458 123.258 169.52 123.262 169.58 123.279C169.64 123.295 169.696 123.324 169.745 123.364C176.24 127.714 193.032 146.704 197.386 154.617C199.861 159.115 201.969 163.04 203.527 165.95C203.555 166.002 203.573 166.059 203.578 166.118C203.584 166.177 203.578 166.236 203.561 166.292C203.544 166.349 203.515 166.401 203.478 166.446C203.44 166.492 203.394 166.529 203.341 166.557C203.276 166.59 203.204 166.607 203.13 166.607Z" fill="#1A1A1A"/>
<path d="M296.994 243.004C296.917 243.004 296.841 242.984 296.774 242.947C296.707 242.909 296.65 242.855 296.61 242.789C287.014 227.367 275.442 216.404 262.219 210.213C262.164 210.191 262.114 210.157 262.072 210.114C262.031 210.071 262 210.02 261.98 209.964C261.96 209.908 261.952 209.848 261.957 209.789C261.962 209.729 261.979 209.672 262.008 209.62C262.03 209.564 262.064 209.515 262.107 209.473C262.15 209.432 262.202 209.401 262.258 209.381C262.314 209.361 262.374 209.353 262.434 209.358C262.493 209.363 262.551 209.38 262.603 209.409C275.983 215.671 287.682 226.743 297.374 242.318C297.416 242.386 297.439 242.463 297.441 242.543C297.443 242.623 297.423 242.702 297.385 242.771C297.346 242.841 297.29 242.9 297.221 242.94C297.152 242.981 297.074 243.003 296.994 243.004V243.004Z" fill="#1A1A1A"/>
<path d="M89.0745 176.353C84.64 176.353 80.3533 175.511 76.9746 172.655C74.9179 170.858 73.4054 168.525 72.6077 165.917C71.9657 163.929 71.0239 160.113 71.9699 156.862C72.5364 155.015 73.313 153.239 74.2843 151.568C76.7465 147.125 79.9563 143.09 82.4776 140.067C87.3437 134.269 92.5713 128.783 98.1293 123.642C102.353 119.683 108.443 117.017 113.798 114.663C116.999 113.252 120.027 111.921 122.245 110.493C122.345 110.43 122.467 110.408 122.583 110.433C122.699 110.459 122.801 110.529 122.865 110.628C122.897 110.677 122.919 110.732 122.93 110.79C122.94 110.847 122.939 110.906 122.927 110.964C122.914 111.021 122.89 111.075 122.857 111.123C122.823 111.171 122.78 111.212 122.73 111.243C120.437 112.713 117.384 114.056 114.144 115.48C108.857 117.804 102.859 120.441 98.729 124.294C93.1976 129.409 87.9953 134.867 83.1533 140.635C80.6574 143.625 77.4814 147.622 75.0572 152.006C74.1192 153.619 73.3682 155.333 72.8188 157.115C71.9404 160.139 72.8188 163.756 73.4481 165.647C74.1962 168.092 75.6135 170.279 77.5405 171.964C82.8197 176.408 90.6329 175.709 97.5296 174.694C105.03 173.599 111.855 171.678 119.66 168.456C119.772 168.411 119.897 168.412 120.009 168.459C120.12 168.506 120.208 168.595 120.253 168.707C120.299 168.819 120.298 168.944 120.251 169.055C120.203 169.166 120.114 169.253 120.002 169.299C112.85 172.33 105.342 174.446 97.6563 175.595C94.8177 176.053 91.9496 176.306 89.0745 176.353V176.353Z" fill="#1A1A1A"/>
<path d="M172.49 242.945H95.6545C95.591 242.947 95.528 242.934 95.4703 242.907C95.4125 242.881 95.3614 242.842 95.3208 242.794C95.2785 242.748 95.2467 242.694 95.2277 242.635C95.2087 242.576 95.203 242.514 95.211 242.452C95.2406 242.12 98.5221 209.236 99.73 193.873C100.748 180.977 101.364 174.462 101.373 174.399C101.384 174.279 101.441 174.168 101.532 174.089C101.624 174.011 101.742 173.971 101.863 173.978C101.923 173.98 101.982 173.995 102.036 174.021C102.09 174.047 102.139 174.084 102.178 174.129C102.218 174.174 102.248 174.227 102.266 174.285C102.284 174.342 102.291 174.402 102.285 174.462C102.285 174.529 101.66 181.04 100.646 193.923C99.5188 208.268 96.5836 237.858 96.1697 242.031H171.937C170.885 236.897 162.725 196.652 162.295 185.412C162.197 182.965 162.607 180.83 163.739 177.785C163.782 177.674 163.866 177.585 163.975 177.536C164.083 177.487 164.206 177.482 164.318 177.524C164.373 177.544 164.423 177.575 164.466 177.614C164.509 177.654 164.544 177.702 164.569 177.755C164.593 177.809 164.606 177.866 164.608 177.925C164.61 177.983 164.6 178.042 164.579 178.096C163.49 181.019 163.097 183.062 163.186 185.378C163.646 197.259 172.832 241.939 172.925 242.389C172.937 242.454 172.935 242.521 172.919 242.585C172.903 242.649 172.873 242.709 172.832 242.76C172.793 242.815 172.742 242.86 172.682 242.892C172.623 242.924 172.557 242.942 172.49 242.945Z" fill="#1A1A1A"/>
<path d="M296.635 243.004C296.566 243.004 296.498 242.987 296.437 242.957C296.376 242.926 296.322 242.882 296.28 242.827C285.829 229.58 270.72 220.787 254.013 218.228C253.955 218.219 253.899 218.199 253.849 218.169C253.798 218.138 253.755 218.098 253.72 218.051C253.685 218.003 253.661 217.949 253.647 217.892C253.634 217.835 253.632 217.776 253.641 217.718C253.647 217.659 253.665 217.602 253.695 217.55C253.725 217.498 253.765 217.453 253.813 217.418C253.861 217.383 253.917 217.359 253.975 217.347C254.034 217.335 254.094 217.335 254.152 217.348C271.084 219.94 286.396 228.852 296.985 242.28C297.022 242.326 297.049 242.379 297.065 242.435C297.08 242.492 297.085 242.551 297.078 242.609C297.071 242.668 297.052 242.724 297.023 242.775C296.995 242.826 296.956 242.871 296.909 242.907C296.831 242.97 296.735 243.004 296.635 243.004Z" fill="#1A1A1A"/>
<path d="M84.1755 150.966C84.0953 150.965 84.0166 150.944 83.9476 150.903C83.8786 150.862 83.8217 150.804 83.7827 150.734C83.739 150.666 83.7158 150.587 83.7158 150.507C83.7158 150.426 83.739 150.347 83.7827 150.279C86.3167 146.35 91.807 143.608 99.6245 142.362C99.6828 142.349 99.7432 142.349 99.8016 142.361C99.86 142.373 99.9152 142.397 99.9635 142.432C100.012 142.467 100.052 142.512 100.082 142.564C100.111 142.616 100.13 142.673 100.135 142.732C100.145 142.79 100.143 142.85 100.13 142.907C100.116 142.964 100.091 143.019 100.057 143.066C100.022 143.114 99.9787 143.155 99.9284 143.185C99.8781 143.216 99.8222 143.237 99.7638 143.246C92.6728 144.375 87.6006 146.725 85.0286 150.065L97.2552 149.934C97.3669 149.945 97.4707 149.997 97.5461 150.08C97.6216 150.163 97.6634 150.271 97.6634 150.382C97.6634 150.494 97.6216 150.602 97.5461 150.685C97.4707 150.768 97.3669 150.82 97.2552 150.831L84.1628 150.966H84.1755Z" fill="#1A1A1A"/>
<path d="M167.713 178.555C165.756 178.548 163.801 178.42 161.86 178.172C127.309 173.935 94.3454 160.905 94.016 160.791C93.9115 160.748 93.8269 160.668 93.7785 160.566C93.7301 160.464 93.7214 160.348 93.7541 160.24L100.262 139.603C100.298 139.498 100.371 139.409 100.467 139.354C100.563 139.298 100.677 139.279 100.786 139.3L160.833 151.985C160.95 152.01 161.052 152.079 161.117 152.179C161.182 152.278 161.204 152.399 161.18 152.516C161.155 152.632 161.085 152.733 160.985 152.798C160.886 152.863 160.764 152.886 160.648 152.861L100.984 140.264L94.7255 160.113C98.5265 161.583 129.547 173.312 161.953 177.288C173.651 178.72 181.895 175.957 185.793 169.286C191.233 159.978 187.01 145.592 180.02 136.183C167.076 118.76 152.809 112.494 152.666 112.435C152.554 112.388 152.465 112.298 152.419 112.186C152.373 112.074 152.374 111.948 152.421 111.837C152.468 111.725 152.557 111.636 152.67 111.591C152.782 111.545 152.908 111.545 153.02 111.592C153.168 111.656 167.646 118.007 180.742 135.636C187.922 145.276 192.209 160.063 186.571 169.72C184.104 173.94 178.859 178.555 167.713 178.555Z" fill="#1A1A1A"/>
<path d="M123.545 188.853C123.448 188.85 123.355 188.817 123.279 188.757C123.202 188.697 123.148 188.613 123.123 188.52L118.123 169.522C118.092 169.407 118.108 169.285 118.167 169.183C118.227 169.08 118.325 169.005 118.439 168.974C118.554 168.943 118.677 168.959 118.78 169.019C118.883 169.078 118.958 169.176 118.989 169.29L122.79 183.685C122.57 180.269 122.291 175.287 122.088 169.661C122.094 169.548 122.142 169.442 122.222 169.363C122.303 169.284 122.41 169.238 122.523 169.234C122.636 169.229 122.746 169.267 122.832 169.34C122.918 169.413 122.974 169.515 122.988 169.627C123.36 180.084 124.01 188.288 124.014 188.368C124.023 188.48 123.99 188.59 123.921 188.678C123.852 188.766 123.753 188.825 123.643 188.844L123.545 188.853Z" fill="#1A1A1A"/>
<path d="M122.523 144.804C122.462 144.803 122.402 144.789 122.347 144.764C122.291 144.739 122.241 144.704 122.199 144.66C122.157 144.616 122.124 144.564 122.102 144.507C122.08 144.45 122.07 144.389 122.072 144.328C122.422 137.729 122.874 133.353 123.36 128.716L123.44 127.916C124.707 115.732 126.206 108.703 126.223 108.632V107.987L118.993 114.865L111.332 126.543L115.665 130.662C115.736 130.729 115.783 130.817 115.799 130.912C115.815 131.008 115.799 131.107 115.753 131.193L111.205 139.713L111.771 141.873C111.777 141.975 111.748 142.077 111.688 142.16C111.628 142.243 111.542 142.303 111.443 142.33C111.344 142.358 111.238 142.35 111.144 142.309C111.05 142.268 110.973 142.196 110.926 142.105L110.314 139.772C110.298 139.718 110.293 139.661 110.3 139.606C110.307 139.55 110.324 139.496 110.352 139.447L114.824 131.062L110.462 126.922C110.386 126.849 110.339 126.752 110.327 126.647C110.316 126.543 110.341 126.438 110.398 126.35L118.3 114.292L126.324 106.623C126.389 106.563 126.469 106.523 126.555 106.508C126.641 106.493 126.73 106.504 126.811 106.538C126.891 106.572 126.96 106.629 127.009 106.702C127.057 106.775 127.084 106.86 127.085 106.947V108.729C127.059 108.889 125.564 115.888 124.306 128.009L124.225 128.809C123.744 133.442 123.288 137.801 122.958 144.392C122.949 144.502 122.9 144.604 122.82 144.68C122.739 144.757 122.634 144.801 122.523 144.804V144.804Z" fill="#1A1A1A"/>
<path d="M81.0249 152.027C80.9279 152.02 80.8357 151.983 80.762 151.919C80.6882 151.856 80.6369 151.771 80.6155 151.676C80.5942 151.582 80.604 151.483 80.6435 151.394C80.683 151.306 80.7501 151.232 80.8349 151.185C81.8803 150.707 82.9731 150.34 84.0953 150.09C84.1533 150.079 84.2129 150.08 84.2706 150.092C84.3283 150.105 84.383 150.128 84.4314 150.162C84.4797 150.196 84.5209 150.239 84.5524 150.289C84.5839 150.338 84.6051 150.394 84.6147 150.452C84.6257 150.51 84.6251 150.569 84.613 150.627C84.6009 150.684 84.5775 150.739 84.5441 150.788C84.5108 150.836 84.4681 150.878 84.4186 150.91C84.3691 150.942 84.3138 150.964 84.2557 150.974C83.2081 151.21 82.1877 151.553 81.2107 151.998C81.1514 152.02 81.0882 152.03 81.0249 152.027V152.027Z" fill="#1A1A1A"/>
<path d="M122.979 79.1216C122.916 79.123 122.853 79.1101 122.795 79.0839C122.738 79.0576 122.686 79.0187 122.646 78.9701C122.557 78.869 114.056 69.1025 121.548 61.8124C126.033 57.445 132.757 61.3617 134.197 62.2882C135.278 61.5386 139.425 59.1549 145.849 61.6691C150.562 63.5096 152.218 69.5616 152.285 69.8185C152.301 69.8753 152.305 69.9347 152.297 69.9931C152.29 70.0516 152.271 70.108 152.241 70.159C152.211 70.21 152.172 70.2546 152.125 70.2904C152.078 70.3262 152.024 70.3524 151.967 70.3674C151.91 70.3824 151.851 70.386 151.792 70.3779C151.734 70.3698 151.677 70.3503 151.626 70.3204C151.575 70.2905 151.531 70.2508 151.495 70.2037C151.46 70.1566 151.434 70.103 151.419 70.0459C151.419 69.9869 149.806 64.1792 145.507 62.4988C138.657 59.8203 134.649 63.0421 134.48 63.1811C134.401 63.2402 134.306 63.2722 134.207 63.2722C134.109 63.2722 134.013 63.2402 133.935 63.1811C133.863 63.1264 126.633 58.0683 122.156 62.4315C115.268 69.1362 123.22 78.271 123.3 78.3594C123.378 78.4491 123.417 78.5657 123.409 78.6839C123.401 78.8021 123.347 78.9125 123.258 78.9911C123.185 79.0681 123.086 79.1146 122.979 79.1216V79.1216Z" fill="#1A1A1A"/>
<path d="M139.983 76.0262C134.286 76.0262 124.965 75.4366 123.009 71.6968C122.953 71.5912 122.942 71.4678 122.977 71.3537C123.012 71.2396 123.091 71.144 123.197 71.0882C123.303 71.0324 123.427 71.0208 123.541 71.0559C123.656 71.0911 123.751 71.1701 123.807 71.2756C125.919 75.2892 139.383 75.3272 144.396 75.0029C144.514 75.0021 144.628 75.0446 144.716 75.1223C144.804 75.2001 144.86 75.3075 144.873 75.424C144.877 75.483 144.87 75.5421 144.851 75.5981C144.831 75.6541 144.801 75.7057 144.762 75.75C144.723 75.7942 144.675 75.8303 144.622 75.8561C144.568 75.8818 144.51 75.8967 144.451 75.8999C144.223 75.9167 142.441 76.0262 139.983 76.0262Z" fill="#1A1A1A"/>
<path d="M136.119 85.0359C135.629 84.9537 135.29 85.1404 135.088 86.735C134.845 88.5152 135.34 88.8479 135.782 88.8064C136.225 88.7649 136.701 88.2608 136.742 86.9857C136.783 85.7106 136.761 85.1572 136.119 85.0359Z" fill="black"/>
<path d="M124.783 84.2191C124.316 84.1241 123.983 84.2943 123.725 85.877C123.428 87.6449 123.896 87.9958 124.325 87.9929C124.754 87.99 125.221 87.4818 125.302 86.2093C125.383 84.9368 125.395 84.3431 124.783 84.2191Z" fill="black"/>
<path d="M122.708 81.5417C122.62 81.5523 122.531 81.5358 122.449 81.494C122.367 81.4522 122.295 81.3864 122.24 81.3032C122.151 81.1722 122.108 81.0072 122.121 80.8432C122.133 80.6793 122.2 80.5293 122.306 80.4253C122.986 79.7605 124.153 79.05 126.399 79.8549C126.536 79.9043 126.651 80.0144 126.721 80.1612C126.79 80.308 126.808 80.4793 126.77 80.6375C126.732 80.7957 126.641 80.9278 126.518 81.0048C126.394 81.0817 126.248 81.0972 126.112 81.0479C124.384 80.4227 123.536 80.875 122.992 81.4069C122.913 81.4857 122.813 81.5328 122.708 81.5417Z" fill="black"/>
<path d="M134.703 82.2599C134.616 82.2704 134.526 82.254 134.444 82.2121C134.362 82.1703 134.291 82.1045 134.236 82.0213C134.147 81.8903 134.104 81.7253 134.116 81.5614C134.128 81.3975 134.195 81.2474 134.302 81.1435C134.982 80.4786 136.149 79.7681 138.395 80.573C138.531 80.6224 138.647 80.7326 138.716 80.8793C138.786 81.0261 138.803 81.1974 138.765 81.3556C138.727 81.5138 138.636 81.646 138.513 81.7229C138.39 81.7999 138.244 81.8154 138.107 81.766C136.38 81.1408 135.532 81.5932 134.988 82.125C134.908 82.2039 134.809 82.2509 134.703 82.2599Z" fill="black"/>
<path d="M132.055 99.5354C131.304 99.5911 130.551 99.5153 129.84 99.3124C129.772 99.2941 129.709 99.2641 129.655 99.2241C129.601 99.1841 129.556 99.1349 129.524 99.0792C129.491 99.0235 129.472 98.9624 129.466 98.8995C129.461 98.8367 129.47 98.7732 129.492 98.7127C129.514 98.6522 129.55 98.5959 129.597 98.547C129.643 98.4981 129.7 98.4575 129.764 98.4277C129.828 98.3978 129.897 98.3792 129.969 98.3729C130.04 98.3666 130.112 98.3727 130.18 98.391C131.394 98.7125 132.398 98.646 133.158 98.218C134.441 97.4814 134.718 95.894 134.722 95.8798C134.732 95.818 134.756 95.7582 134.792 95.704C134.828 95.6497 134.875 95.6021 134.932 95.5637C134.988 95.5253 135.052 95.4968 135.121 95.48C135.189 95.4632 135.26 95.4585 135.33 95.4659C135.4 95.4733 135.467 95.4928 135.528 95.5234C135.588 95.5539 135.641 95.5948 135.683 95.6438C135.726 95.6927 135.756 95.7488 135.774 95.8087C135.791 95.8687 135.795 95.9313 135.785 95.9931C135.792 96.0757 135.45 98.0307 133.722 99.0175C133.218 99.3041 132.647 99.4817 132.055 99.5354V99.5354Z" fill="black"/>
<path d="M126.249 95.3621C126.135 95.375 126.02 95.345 125.925 95.2773C125.829 95.2096 125.758 95.1086 125.725 94.992C125.327 93.7662 124.511 90.809 125.433 89.8993C125.991 89.3292 127.321 89.6807 128.35 90.0707L128.873 83.2915C128.888 83.1512 128.952 83.0226 129.054 82.9321C129.155 82.8417 129.286 82.7963 129.42 82.8053C129.487 82.8087 129.553 82.8268 129.614 82.8585C129.675 82.8903 129.729 82.935 129.773 82.9898C129.816 83.0446 129.849 83.1083 129.869 83.1768C129.888 83.2454 129.894 83.3172 129.885 83.3879L129.312 90.8761C129.307 90.9605 129.282 91.0422 129.24 91.1138C129.198 91.1855 129.14 91.2449 129.071 91.2869C129.004 91.3303 128.928 91.3567 128.849 91.3641C128.77 91.3715 128.69 91.3598 128.615 91.3297C127.555 90.8702 126.348 90.5795 126.111 90.7105C125.847 90.9683 126.121 92.8996 126.683 94.664C126.707 94.7305 126.718 94.8013 126.716 94.8722C126.713 94.9432 126.696 95.0126 126.667 95.0761C126.637 95.1397 126.596 95.1959 126.545 95.2414C126.494 95.2869 126.434 95.3207 126.37 95.3405C126.331 95.3531 126.29 95.3602 126.249 95.3621Z" fill="black"/>
</g>
<defs>
<clipPath id="clip0_17_2430">
<rect width="308" height="243" fill="white"/>
</clipPath>
</defs>
</svg>
